<?xml version="1.0" encoding="utf-8"?>
<!-- Generator: Adobe Illustrator 23.0.0, SVG Export Plug-In . SVG Version: 6.00 Build 0)  -->
<svg version="1.1" id="Layer_1" xmlns="http://www.w3.org/2000/svg" xmlns:xlink="http://www.w3.org/1999/xlink" x="0px" y="0px"
	 viewBox="0 0 164.3 286.5" style="enable-background:new 0 0 164.3 286.5;" xml:space="preserve" width="1450%" height="1450%">
<style type="text/css">
	.st0{fill:url(#SVGID_1_);}
</style>
<linearGradient id="SVGID_1_" gradientUnits="userSpaceOnUse" x1="82.1621" y1="-99.1804" x2="82.1621" y2="383.4345">
	<stop  offset="1" style="stop-color:#F1F1F1"/>
</linearGradient>
<path class="st0" d="M65.1,256.2l-0.1,0.1l0.2,0.2l0.1,0.1l0-0.2l-0.1-0.1L65.1,256.2L65.1,256.2z M85.8,258.8L85.8,258.8l-0.2,0
	l0-0.1l-0.1-0.2l-0.1,0l-0.1,0l-0.2,0l-0.1,0.1l0,0.1l0.1,0.1l0.2,0h0.1l0.1,0.1l0,0.1l-0.1,0l0.1,0.1L85.8,258.8l0.2,0l-0.1,0
	L85.8,258.8z M17.8,258.5L17.8,258.5L17.8,258.5L17.8,258.5L17.8,258.5L17.8,258.5z M18.9,259L18.9,259l0.2-0.1l-0.1,0L18.9,259z
	 M19,259.6L19,259.6L19,259.6L19,259.6L19,259.6z M78.2,263.4L78.2,263.4L78.2,263.4l-0.1-0.2l0.1-0.1l-0.1-0.2l-0.1,0l-0.2,0.3
	l-0.1,0.2l-0.1,0.2l-0.1,0.1l-0.1,0l0.2,0l0.2-0.1l0-0.1l0.1,0L78.2,263.4z M53.3,264.1L53.3,264.1l0.1,0.3l0.2,0.4l0.1-0.1l0-0.2
	l-0.1-0.1l-0.1-0.1L53.3,264.1L53.3,264.1L53.3,264.1z M51.9,265.9L51.9,265.9l0-0.1l-0.1,0l-0.1,0.1l-0.1,0l0,0l-0.1,0.1l-0.2,0
	l0-0.2l0-0.1l-0.1,0l0,0.3l0.1,0.2l0.1,0l0,0l0.1,0l0.1,0l0.1,0l0.1,0l0,0L51.9,265.9L51.9,265.9z M51.1,266.1L51.1,266.1l0-0.2
	l-0.1-0.1l-0.1,0l-0.2-0.1l-0.1,0l-0.1,0.1l0.1,0l0.2,0l0,0v0.1l0,0.1l0,0.1L51.1,266.1L51.1,266.1z M50.5,265.8L50.5,265.8
	L50.5,265.8L50.5,265.8z M58.7,267.2L58.7,267.2l0.1,0.1l0,0.1l0,0l0,0l-0.1,0l0-0.1L58.7,267.2L58.7,267.2l-0.1,0l0-0.1l0,0
	L58.7,267.2l0-0.1l-0.3-0.2l0.1,0.4l0.1,0.2l0.2,0.1l0.1-0.1l0-0.2L58.7,267.2L58.7,267.2z M46.7,267.4l-0.1,0.1L46.7,267.4l0.2-0.1
	l-0.1,0L46.7,267.4z M56.4,270L56.4,270L56.4,270l-0.1,0.2l0,0.1l0.2-0.1l0-0.1L56.4,270L56.4,270z M64.2,272.5l-0.1-0.1l-0.1,0v0.1
	H64l-0.1-0.1l0.1,0L64.2,272.5l0.1,0.3l0,0.2l-0.1,0.1l0.1,0.1l0,0l-0.1-0.5L64.2,272.5z M61.7,273.2l0.1-0.2l-0.1-0.2l-0.2,0.2
	L61.7,273.2z M58.2,273.8l-0.3,0.2l0.2,0l0.1,0l0.2,0l0-0.2L58.2,273.8z M57.2,274.1L57.2,274.1l-0.2,0.1l0,0.1l-0.1,0l-0.1-0.1
	l-0.1,0.1l0.1,0.2l0.1,0l0.2,0l0.2-0.1l0.1-0.1l-0.1-0.1L57.2,274.1L57.2,274.1z M55.7,274.6l-0.2,0.1l0.1,0.1l0.1,0.1l0,0.1l0.1,0
	l0,0.1h0.1l0.2,0.2l0-0.3l-0.1-0.2L55.7,274.6z M57.7,276.3L57.7,276.3l0,0.3l0,0.1l0.1,0l0.1-0.1l0.1-0.1l-0.1-0.1L57.7,276.3z
	 M57.5,276.8L57.5,276.8l-0.1,0.2l0,0.1l0,0.1l0.1,0l0,0.2l0.1,0l0,0.1l0,0.1l0,0l0,0l0,0l0.1,0l0-0.1l0-0.1l0.1-0.1l0-0.1l0-0.1
	l0-0.1l0-0.1l0.1,0l-0.1-0.2L57.5,276.8z M63.4,277l-0.2-0.1l-0.2,0L63,277l0.1,0.1l0,0L63.4,277L63.4,277L63.4,277L63.4,277z
	 M61.8,277l-0.2,0l-0.1,0.1l0.1,0l0-0.1l0,0l0,0l0.1,0l0.1,0.1l0-0.1l0-0.1L62,277l0.1,0l0-0.1L61.8,277z M57.8,277L57.8,277
	L57.8,277L57.8,277z M60.2,277.6L60.2,277.6l-0.3-0.1l0,0.1l0.1,0.1v0.2l0.1,0.1l0,0h0.1l0-0.1l0-0.1v0L60.2,277.6L60.2,277.6z
	 M57.4,278l-0.1,0.1l0,0.1l0,0v0.1l0,0.1l0,0l0,0l0,0.1l0.1,0.1l0.1,0.1l0.2-0.6l0-0.2L57.4,278z M57.1,278.6L57.1,278.6l-0.2,0
	l-0.1,0.1l-0.2,0.2l-0.2,0.1l-0.1,0.1l0.1,0.2l0.1,0.1l0.2-0.1l0.2-0.1l0.1-0.1l0.1-0.2l0-0.1L57.1,278.6L57.1,278.6z M55.4,279.9
	l-0.2,0.2l-0.1,0.1l-0.1,0.1l0,0l0.1,0.1l0.3,0.1l0.1-0.1l0.1-0.1l0.1-0.1l0-0.1l-0.1-0.1L55.4,279.9z M52,280.4L52,280.4L52,280.4
	L52,280.4l-0.2,0.1l0,0l-0.1,0.1l0,0.1l0,0.1l0.1,0.1l0,0.1l0,0.1l0,0l-0.1,0v0.1l-0.1,0.1l0.1,0.1l0,0.1l0,0.1l0,0.1l0.1,0.1l0.1,0
	l0.1,0l0.1-0.2l0-0.2l0-0.1l0-0.1l0.1-0.1l0-0.1l0-0.2L52,280.4z M85.5,251.1l0-0.2l-0.2,0l-0.2,0.1l-0.1,0l-0.2,0.3l0,0.2l0.1,0
	l0.2,0l0.1,0l0.3-0.3l-0.1-0.2L85.5,251.1L85.5,251.1z M63.9,256.7l0-0.1l0.1-0.2l0-0.1l-0.1-0.1l-0.1,0l-0.1,0l-0.2,0.1l-0.2,0.1
	l-0.2,0.1l0,0.2l0.2,0l0.2,0.1l0.1,0l0.1,0l0.1,0l0.1,0L63.9,256.7z M66.4,258.4L66.4,258.4l0.2-0.1l0.1-0.3l-0.2-0.2l-0.1,0l-0.1,0
	v0l0,0l-0.1,0.1l-0.1,0.1l0,0.1l0.1,0.1l0.1,0l0.1,0v0l0,0l0,0l0.1,0.1l0,0l0-0.1h0.1l0,0.1l-0.1,0.1l-0.1,0.1l-0.1,0.1l-0.1,0
	l0-0.1l-0.1,0l0,0l-0.1,0.1l0,0.1L66.4,258.4z M63.1,258.9l0-0.1l0,0l0,0l0.1-0.1l0-0.1l0,0l0-0.1l0,0l0,0l0,0l0,0.3l0,0.1l0,0
	l0,0.1l-0.1-0.1l-0.1-0.1l-0.1,0l-0.1,0.1l0,0.1l0,0h0l0,0l0,0.1l-0.1,0.2l0.2,0.2l0.1,0l0.1-0.1l0.2-0.1L63,259L63.1,258.9z
	 M68.5,260.6l0.1-0.1l-0.2-0.3l-0.2-0.1l-0.1,0l0,0.1l-0.1,0.2l0.1,0.2l0.1,0.1l0,0l0,0l0.1,0l0.1,0L68.5,260.6l-0.1-0.1l-0.1,0l0,0
	l0.1-0.1l0-0.1h-0.1l-0.1,0.1l0-0.1l-0.1,0l0-0.1l0,0l0,0.1l0.1,0l0.1,0l0.1,0L68.5,260.6L68.5,260.6z M67.4,260.9l0.1-0.1l0.1-0.1
	l-0.1-0.1l-0.1,0l-0.3,0.2L67,261l-0.1,0.2l0,0.1l0,0.1l0,0l0.1,0l0.1,0l0,0l0-0.1l0.1-0.1l0.1,0l0.1-0.1l0.1,0l0.1,0L67.4,260.9
	L67.4,260.9z M59.4,260.8L59.4,260.8l-0.2,0l-0.1,0.1l0,0.1l-0.1,0l-0.1,0.1l0,0.1l0.1,0l0.1,0l0-0.1l0,0.1l0,0.1l0.1,0.1l0.1,0.1
	l0-0.1l0,0l0.1-0.1l0-0.1l0-0.1l0,0l0-0.1l0,0h0l0,0l0,0l0.1-0.1l0.2,0l0,0l0,0.1l-0.1,0v0.1l0,0l0,0.1l0,0.1l0,0l-0.1,0.1l0.1,0
	l0.1-0.1l0.1-0.2l0-0.1l-0.1,0L59.4,260.8z M67,261.6l0.2-0.1l0.1-0.2l0-0.1l-0.1,0l-0.1,0v-0.1l0-0.1l-0.1,0l0,0l0,0.1l0,0.1l0,0.1
	l0,0l0,0l-0.1,0l-0.1,0l0,0.1L67,261.6L67,261.6L67,261.6z M60.9,261.2l0,0.2l0,0.2l0.1,0.1l0.1,0l0.2-0.2l0-0.1l-0.2-0.2
	L60.9,261.2z M51.4,265.1l0.2,0l0.1,0l0,0l0,0l0,0l0-0.1l0,0l0-0.2l-0.2,0l-0.2,0.1l0,0.1l0,0l-0.1,0L51.4,265.1z M50.7,266l0.1,0
	L50.7,266l0-0.1l0,0l-0.1,0h-0.1l0-0.1l-0.1,0.1L50.7,266z M68.9,157.6L68.9,157.6L68.9,157.6l0.2,0.2l0.1,0.1l-0.1-0.2l0.1-0.1
	l0.2,0.1l-0.1-0.3l-0.1-0.1l-0.1-0.2l-0.2-0.1l-0.1,0.4L68.9,157.6l0.1-0.1l0.1,0.1L68.9,157.6L68.9,157.6z M84.5,161.4L84.5,161.4
	l0-0.2l-0.2-0.1l-0.2,0.1l0.2,0.3l0.3,0.4l0,0.1h0.1l0-0.1l0.1-0.1l0,0l0-0.1l-0.1,0l0,0l-0.1,0l-0.1,0l0,0l-0.1-0.1l0-0.1
	L84.5,161.4L84.5,161.4z M48.8,161.8l0,0.2l0,0.1l0.1,0l0.1-0.1l0.1,0l0.2-0.1l0.2-0.3l0.1,0l0.1,0l0.2-0.1l-0.1-0.1l-0.2,0
	l-0.2,0.3L48.8,161.8z M54.8,170.7l0.1-0.1l0.1,0l0.2,0l-0.1-0.1l-0.1-0.1l-0.2,0.1l-0.1,0.4L54.8,170.7L54.8,170.7z M65.9,170.6
	L65.9,170.6L65.9,170.6l-0.2,0l0,0.2l0.2,0.3l0.1-0.1l0-0.2L65.9,170.6L65.9,170.6z M53.5,171.6L53.5,171.6l-0.2-0.1l-0.2,0l0,0.1
	l0,0l0.1,0l0.1,0l-0.1,0.1l0,0.2l0.3,0l0.1-0.2l0-0.2L53.5,171.6z M63.5,172.8l-0.1,0l-0.2,0.2l0,0.1l0,0l0.1,0l0.1,0l0,0l0,0.1
	l0.1,0.1l0.1-0.1l0.1,0l0-0.1l0-0.1L63.5,172.8L63.5,172.8z M47.2,177.8L47.2,177.8l-0.1,0l0,0.1l0.1,0.2h0.1l0.1-0.1l0-0.1
	L47.2,177.8z M68,178.7l0.1-0.1l-0.1-0.2l-0.1-0.1l-0.3,0.2l0.2,0.3L68,178.7z M101.2,118.6l0.1-0.1l0.1-0.1l0.2,0l0,0l0,0.1l0.1,0
	l0.1-0.1l0-0.1l0-0.1l0.1-0.1l0.1,0l0-0.1l-0.1,0l-0.1,0l0.1-0.2l0.1-0.2l-0.1,0l0,0l-0.1,0.1l-0.1,0.1l0,0.1l-0.1,0.1l-0.1,0
	l-0.1,0l0,0l0,0.1l-0.1,0l-0.1,0l-0.1,0.1l0,0l-0.1,0.1l0,0.1L101.2,118.6L101.2,118.6z M86.3,118.6L86.3,118.6l-0.1,0l0,0.2
	l0.1,0.3l0,0.3l0.1-0.1l0-0.2l0.1-0.1l-0.1-0.1l0-0.1L86.3,118.6z M108,124.5l0,0.1l0.1,0.2l0.1,0l0-0.1l0,0l0.1-0.1v-0.1l-0.1,0
	l0-0.1l-0.3-0.2l-0.2,0.1l0.2,0.2L108,124.5z M116.5,127.4l0.1,0.1l0,0.1l-0.1,0.1l0,0.1l0,0.1l0,0.1l0.1,0l0.1,0l0,0l0.1,0.3l0.1,0
	l0.1-0.1l-0.1-0.1l0-0.2l0-0.3l0.1-0.2l-0.1-0.2l0-0.1l0.1-0.1l0-0.1l-0.3,0l-0.1,0.1l0,0.2l0,0.2L116.5,127.4L116.5,127.4z
	 M87.7,134.6l0.2,0.1l0.1,0.1l0-0.3l-0.1-0.1l-0.2,0l-0.1,0l-0.1,0.1L87.7,134.6L87.7,134.6L87.7,134.6z M88.6,134.7l0.2,0.3
	l-0.1-0.4L88.6,134.7z M98.1,137.5l-0.2,0l0,0.3l0.1,0.3l0.1-0.1l0-0.3L98.1,137.5L98.1,137.5z M100.6,141.2l0.1,0l0.1,0l0.2,0
	l0-0.1l0,0l-0.2-0.1l-0.2-0.3l-0.2-0.1l0.1,0.2L100.6,141.2z M126.3,149.2L126.3,149.2l-0.2,0l-0.3-0.2l-0.1,0l0,0.1l0.1,0.1l0,0.1
	l0,0.2l0.1,0.1l0.3,0.3l0.1,0l0.1-0.1l0-0.1l0-0.1l-0.1-0.2L126.3,149.2L126.3,149.2L126.3,149.2L126.3,149.2z M125.9,150.7
	L125.9,150.7l0.1,0.2l0.1,0l0-0.1l0.1,0.2l0.1,0.1l0.1-0.2l-0.1-0.2l-0.1-0.2l-0.2-0.1l-0.2,0l0,0.1l0,0l0,0.1L125.9,150.7z
	 M128.1,151.4l0.2,0.3l0.3-0.2l-0.1-0.1l0-0.1l0,0l-0.1-0.1l-0.2-0.2l-0.2,0l-0.1,0.2l0.1,0.2L128.1,151.4z M126.8,151.3
	L126.8,151.3L126.8,151.3l-0.2,0.1l-0.4,0.2l-0.2,0l-0.1,0l-0.8-0.6L125,151l-0.2,0.1l-0.2,0.2l-0.1,0.2l0,0.2l0,0.2l1.1,2.6
	l0.8,2.8l0.3,0.5l0.4,0.2l0,0.1l0,0l0,0l0.4,0.3l0.8,1l0.8,0.6l0.5,0.3l0.5-0.1l0.7,0.2l0.7,0.3l0.8,0.9l0.1,0.2l0.1,0.3l0,0.5
	l0.1-0.1l0.1,0l0.1,0.1l0.1,0.2l-0.3,0.2l0.2,0.2l0.3,0l0.3-0.3l0.3,0l0.2,0.2l0.1,0.4l-0.1-0.1l-0.1-0.1l-0.1,0l-0.1-0.1l-0.2,0.5
	l0.1,0l0.2,0.1l-0.1,0l-0.1,0v0.1l0.7,0.2l1,1.4l0.6,0.3l0.3-0.1l0.7-0.4l0.3-0.1l0.4,0.1l0.3,0.2l0.2,0.3l0,0.4l-0.3-0.2l-0.1-0.1
	l-0.3,0.4l-0.4,0.4l-0.1,0.2l0.1,0.3l0.1,0.3l0,0.3l-0.1,0.2l-0.3,0.3l-0.3,0.3l-0.2,0.1h-1l0.2,0.3l-0.1,0.1l-0.2,0l-0.3,0.1
	l-0.2,0.1l-0.1,0.2l-0.1,0.2l-0.3,0.1l0.1,0.3l0.1,0.2l0.2,0.2l0.2,0.1l0.3,0l0.2-0.1l0.3-0.5l0.1,0.3l0.2,0.2l0.2,0.2l0.2,0.2
	l0.1,0l0.2,0l0.1,0l0.3,0.3l0.1,0.1l-0.1,0.1l0,0.1l0,0.1l0,0.1l-0.1,1.4l0.2,0.5l0.7,0.1l0.8-0.1l0.8,0.1l0.7,0.3l0.5,0.6l0.2,0.7
	l0.1,0.9l0.1,0.2l0.1,0.2l0.1,0.1l0.2,0.1l0.1,0l0-0.1l0.2-0.3l0.1-0.2l0.1-0.1l0.5-0.2l0.2,0l0.1,0.1l0.1,0.1l0.6,0.1l0.2,0.1
	l0.4,0.4l0.1-0.2l0.2,0l0.1,0.2l0,0.3l0.3-0.1l0.2-0.2l0.3-0.4l0.2,0l0.3,0.2l0.5,0.4l0.1-0.2l0.1-0.6l0-0.1l0.2-0.1l0.1-0.1l0.1,0
	l0.2,0.1l0.1,0.2l0,0.2l0.1,0.2l0.2,0.1l0.2-0.1l0.6-0.3l0.1-0.1l0.3,0.1l0.2,0.2l0.1,0.1l0.2,0.1l0.1,0l0,0.1l0,0.3l0,0.1l0,0l0,0
	l0.2,0.6l0.2,0.1l0.4,0.2l0.1,0.1l0.3-0.5l-0.3-0.6l-0.5-0.6l-0.3-0.5l-0.1-0.5l-0.2-0.3l-0.3-0.2l-0.8-0.6l-0.2,0l0,0.3l0.3,0.3
	L147,175l-0.5-0.1l-0.3-0.3V174l0.2-0.3l1-0.8l0.1-0.2l0.1-0.3l0-0.4l-0.1,0l-0.2-0.2l-0.2-0.2l0-0.1l-0.2-0.1l-0.3-0.2l-0.2-0.1
	l-0.1-0.1l-0.1-0.2l-0.1-0.4l-0.1,0l-0.1,0l-0.1,0l-0.1,0l0.2-0.3l0-0.3l-0.1-0.3l-0.4-0.5l-0.1-0.2l-0.1-0.3v-0.4l-0.1-0.1L145,168
	l-0.1,0l-0.1,0l-0.1-0.2l0-0.2l0.1-0.2l0-0.2l-0.2-0.1l0.2-0.3l0.2,0l0.2-0.1l0-0.4l-0.2-0.6l-0.2-0.3l-0.2,0l-0.3,0.1l0-0.3
	l0.2-0.3l0.5,0.2l0.1-0.1l0.1-0.2l-0.1-0.2l-0.4-0.4l-0.1-0.1l0-0.2l0-0.5l-0.2-0.5l0-0.1l0-0.4l0-0.3l0.1-0.3l0.3-0.4l0.2-0.4
	l0.1-0.2l0.6-0.5l0-0.2l-0.2-0.2l-0.2-0.2l-0.2-0.1l0-0.1l0-0.1l0-0.1l-0.6,0l-0.2-0.1l0-0.3l0.1-0.2l0.2-0.1l0.5-0.1l-0.1-0.1
	l-0.1-0.1l-0.1-0.1l-0.2-0.1l0.2-0.1l0.4-0.1l0.1-0.1l0.3,0.1l0-0.2l-0.2-0.5l-0.4-0.5l-0.1-0.2l-0.2,0l-0.6-0.5l-0.3-0.2l-0.6,0
	l-0.2-0.1l0.1-0.3l-0.3,0.3l-0.2,0.1l-0.2-0.1l0.1-0.1l0-0.1v-0.1l0-0.2l-0.2,0.1l-0.5,0.3l0.1-0.3l0.1-0.1l0.1-0.1l-0.4-0.3
	l0.1-0.4l0.3-0.4l0.3-0.2l-0.3-0.2l-0.1-0.2l-0.2-0.4l-0.1-0.2l-0.4-0.2l-0.2-0.2l0-0.3l-0.4-0.4l-0.8-0.5l-0.4-0.4l-0.1-0.1l-0.2,0
	l-0.2,0.1l-0.2,0l-0.5-0.1l-0.2,0.1l-0.1,0.4l-0.1,0.1l-0.2,0.1l-0.2,0.1l-0.1,0.1l-0.2,0l-0.1,0l-0.1-0.1l-0.1,0l0-0.1l-0.3-0.2
	l-0.4-0.1l-0.2,0l-0.1-0.3l-0.3,0.1l-0.3,0.2l-0.2,0.1l-0.2-0.1l-0.2-0.2l-0.2-0.2l-0.3-0.1v0.1l0.1,0.2l0.2,0.2l0.1,0.2l-0.1,0.2
	l-0.2,0.1l-0.2,0.1l-3.2,0.2l-1.4-0.1l-0.4-0.1l-0.4,0l-0.1,0L129,152l-0.1,0l0-0.1l0,0l-0.2-0.1l-0.1,0l-1.1,0l-0.1,0l0.1,0l0,0
	l0-0.1l0-0.1l-0.2-0.1l-0.1,0l-0.1-0.1l-0.1-0.2L127,151l-0.1,0.1L126.8,151.3z M121.4,156.6l0.2-0.5l-0.3-0.1l-0.1,0.2l0.1,0l0,0.2
	L121.4,156.6L121.4,156.6z M114.1,162.7L114.1,162.7l-0.1,0l0,0.2l0,0.2l0.2,0.2l0.1-0.3l0-0.2L114.1,162.7L114.1,162.7z
	 M104.8,163.9l0.2-0.1l0.1-0.3l-0.1-0.1l-0.2,0.1L104.8,163.9z M108.4,168.4L108.4,168.4l0.2-0.2l0.1-0.1l0.1,0.1l0,0l0-0.2
	l-0.1-0.1l0,0.1h-0.2l-0.3,0l-0.1,0.1l0.1,0.1L108.4,168.4L108.4,168.4z M117.8,172.3l-0.1,0.4l0,0.3l0.1,0.4l0.2-0.1l0-0.4l0.1-0.1
	l0-0.2l0-0.3L117.8,172.3z M46,173.5l0,0.1l0.2,0.2l0-0.3l0.1-0.1l0-0.1l0.1-0.1l0.1-0.2l0-0.1l0-0.1l-0.1,0l-0.1,0.1l0,0.1
	l-0.1,0.1l-0.1,0l-0.1,0.1l0,0.2L46,173.5L46,173.5z M105.3,173.8l0,0.2l0.1,0l0.1-0.2l0,0l0,0l0,0.1l0.1,0l0-0.2l0.1-0.1l0-0.1
	l0.1,0l0.1-0.1l0.1,0l0.1-0.1l-0.1-0.1l0-0.1l-0.1,0.1l-0.1,0l-0.1-0.2h-0.1l-0.1,0l0,0.1l0,0.1l0,0.2l0,0.1l-0.1,0.2L105.3,173.8z
	 M40.6,174.6l0.1,0.1l0.2,0l0.1,0.1l0.1,0l0.1,0.1l-0.1-0.2l0,0l0-0.1l0-0.2l0-0.1l-0.1,0.1l-0.1,0l-0.2-0.1l0-0.2l0-0.1l-0.1,0
	l0,0.1l0,0l0,0.1v0l-0.1,0.1l-0.1,0L40.6,174.6L40.6,174.6z M46.5,176.3L46.5,176.3l-0.1-0.1l0,0l-0.1,0l-0.1,0l-0.1,0l0,0.1l0,0.1
	l0.1,0.1l0,0.1l0,0l0.1,0l0.1,0.1v0.1l0,0l-0.1,0.1l0,0.1l0.1-0.1l0.1,0l0.1,0l0-0.1l0-0.1l0-0.1l0,0l-0.1-0.1L46.5,176.3z
	 M46.4,177L46.4,177l-0.1,0.1l0,0.1l0,0.1l-0.1,0.1l0,0.4l0.1-0.1l0.2-0.2l0.1-0.1l0,0l0-0.2L46.4,177L46.4,177z M39.3,178.7l0,0.2
	l0.1,0.1l0.1,0l0.1,0.1l0.1,0.1l0.1,0.1l0.2-0.1l0-0.1l0-0.1l-0.1-0.1l0-0.1l0.1-0.1l0.1-0.1l-0.1-0.1v-0.1l0.1-0.1l-0.1-0.1l-0.2,0
	l-0.1,0.1l0,0.1l0-0.1l-0.1,0l-0.2,0l0,0.1l0,0.1l0,0.1l0.1,0l0,0l-0.1,0.1l-0.1,0.2L39.3,178.7L39.3,178.7z M147.4,178.6l0.2,0.1
	l0.3-0.1l0-0.3l-0.4-0.2l-0.3,0.1l0,0.1l0,0.1L147.4,178.6z M153,182.6l0.2,0.1l0,0l0-0.3l-0.3-0.2l-0.1,0.1l0.1,0.1L153,182.6z
	 M36.9,185.5L36.9,185.5l0.1,0.1l-0.1,0l0,0.1l-0.1,0.1l0,0l0-0.1l0,0l0,0l0.1,0l0.1-0.1l0.2-0.2l0.1,0l0.1,0l0.2-0.1l0.2,0l0,0.1
	l0.1,0l0.1,0l0.1,0l0-0.1l-0.1,0l-0.1,0l-0.1-0.1l-0.1-0.1l-0.1-0.1l0,0.1l-0.1,0.1l-0.1,0l0,0l0,0l0-0.1l0-0.1l-0.1,0l-0.2,0.2
	l-0.1-0.1l-0.2,0l0-0.1l-0.1,0.1L36.9,185.5L36.9,185.5z M97.4,187.9L97.4,187.9l0.2-0.1l0.1,0l0.2,0l0.1,0l0.1,0l0-0.1l0-0.1
	l-0.1-0.1l-0.3-0.2l-0.2,0.2l0,0.1l0,0.1L97.4,187.9z M145.3,187.8l-0.2-0.1l-0.2-0.1l-0.2-0.1l-0.1,0l0,0.1l0,0.1l0,0.1l0.1,0.1
	l0,0.1l0.1,0.2l0.1,0l0.2,0l-0.1-0.2l0.1-0.1L145.3,187.8z M120.6,191.4L120.6,191.4l0.1-0.1l0-0.2l0-0.1l0.1-0.1l0-0.1l0.1-0.1
	l-0.1-0.1l-0.2,0.1l-0.1,0l-0.1,0l-0.1,0.1l0.1,0.1l-0.1,0.1l-0.1,0.1l-0.1,0.1l0,0l-0.1,0l-0.2,0l-0.1,0.1l0,0.1l0.1-0.1l0.2-0.1
	l0.2,0.1l0,0.1L120.6,191.4z M123.7,192h-0.1l-0.1,0.1l-0.1,0h-0.1l-0.2,0.1l0.1,0.2l0.1,0l0,0v0.1l0.1,0l0.2-0.1l0.3-0.2l0.1-0.1h0
	l0.1,0l0.1-0.1l0-0.1l-0.2,0l-0.2,0l0,0L123.7,192z M138,197.3L138,197.3l0.1-0.3l0-0.2l0-0.1l0-0.2l-0.1-0.2l0-0.2h-0.2l0.1,0.2
	l0.1,0.1l0.1,0.3l0,0.2l-0.1,0.1L138,197.3z M145.5,197.5l0.2,0.2l0.2,0l0.1,0.1h0.1l0.2-0.1l-0.1-0.1l-0.2-0.2l0-0.2l-0.1,0l0,0
	l-0.1,0v-0.1l0-0.1V197l-0.1,0l0-0.1l-0.1,0l0,0.1l0,0.1l0,0.1V197.5L145.5,197.5z M149.4,199.2L149.4,199.2l-0.2-0.1l-0.1,0l0-0.2
	l0.1-0.1l-0.2-0.1l0,0.1l0,0.1l-0.1,0.1l-0.1,0l-0.1-0.1l0,0.2l0.1,0.2l0,0.1l0.1,0l0.1,0l0.1,0l0,0.1l0.1,0.1l0-0.2l0.1-0.2
	L149.4,199.2z M148,200.3l0-0.1l-0.1,0l-0.1,0l0,0l-0.1,0l-0.1,0l-0.1,0.1l-0.1-0.1l-0.1-0.1l-0.2,0.1v0.2l0,0.1l-0.1,0.1l0.2,0
	l0.1,0l0-0.1l0.1,0.1l0,0.1l0.1,0l0,0.1l0,0.2v0.1l0.3,0.2l0,0l0,0l0.1,0l-0.1-0.2l0,0l0-0.2l0-0.1l0-0.1l-0.1-0.1L148,200.3
	L148,200.3z M25.4,208.9l-0.1-0.3l-0.1-0.1l-0.1-0.1l-0.1,0l-0.1,0.2l0,0.3l-0.1,0.1l0,0.2v0l0.3,0L25.4,208.9z M61.7,119.7l0.2-0.1
	l0.1,0l0,0l-0.3,0l-0.1,0.1l-0.2-0.1l-0.1,0.1l0,0.2l0.1,0.1l0.2,0L61.7,119.7z M52.3,128.6l0.2,0.1l0.2-0.2l-0.2-0.3l-0.3-0.1
	l-0.1,0.1l0,0v0.2l0.1,0.1L52.3,128.6z M82.3,14.7l0.1,0.1l0.1,0l0-0.1l0.1-0.2l-0.1-0.4l-0.2,0.3L82.3,14.7z M77.5,30.6L77.5,30.6
	l0.1-0.1l0-0.1l-0.1-0.3l-0.1,0.2l0,0.1L77.5,30.6z M87.7,46.5l0,0.5l0.5-0.3l0.1-0.1l0-0.2l0.1-0.3l0-0.3l0-0.1l-0.1-0.1l-0.1-0.1
	l-0.1,0l-0.1,0l-0.1,0.1l-0.1,0l0,0L87.6,46l0,0.1l0.2,0.2L87.7,46.5z M50.2,84.5l0.1,0l0.2,0.1l0.1,0.1l0.2,0l0.2,0.1l0.1-0.1
	l0-0.2l0-0.2l-0.4-0.5l-0.1,0l-0.2,0L50.2,84l0,0.2L50.2,84.5L50.2,84.5z M86.9,111.6l0.2-0.1l-0.2-0.3l-0.3-0.2l-0.3,0l-0.1,0
	l-0.1,0l-0.1,0.1l0.2,0.3v0.1l0.1,0l0.1,0l0.1,0.1l0.1,0L86.9,111.6z M82.8,121l-0.3,0.1l0,0.1l0,0.2l0.1,0.1l0.1,0.1l0,0.2l0.1,0
	l0.1-0.1l0-0.1l0-0.1l0.3-0.4l0-0.1L82.8,121L82.8,121z M125.3,127.3l0.2,0l0.2-0.1l0.1,0v-0.1l-0.4-0.5l-0.1,0l0,0.1l0,0h-0.1
	l-0.1,0.1l0.1,0.2L125.3,127.3z M82,128.4L82,128.4l0.2-0.1l0-0.3l-0.1-0.1l0-0.1l0-0.1l-0.1-0.2l-0.4-0.1l-0.1,0l-0.1,0.1l0.1,0.2
	l0,0.1l-0.1,0l-0.1,0.1l0.1,0.3l0.1,0.2l0.1,0l0.3-0.2l0.1,0.1L82,128.4z M57.3,129.6l-0.1-0.2l0,0l-0.1,0l-0.1,0l-0.2-0.1l-0.2-0.1
	l-0.1,0.3l-0.1,0.1l-0.2,0l-0.1,0.1l0.1,0l0.1,0l0,0.1l0,0.1l0.1,0.1l0.3,0.1l0.2,0l0.3-0.3l0-0.1l0-0.1L57.3,129.6z M57,132
	l0.1,0.1l0.8,0.3l0.2,0.1l0.1,0.1l0.1,0l0.2,0l0.1,0l0.2,0l0.1-0.2l-0.1-0.2l-0.1-0.1l-0.1,0l-0.3,0l-0.2-0.1l-0.1-0.1L57,132
	L57,132z M86.6,145.1l0.2,0.2l0.2,0l0.2-0.1l0.1-0.2l0.1-0.2l0-0.2l-0.1-0.1l-0.4-0.1l-0.4,0.1l-0.1,0.1l0,0.1l0,0.1l0,0.1l0.1,0
	l0.1,0.1l0.1,0.1L86.6,145.1L86.6,145.1z M86.1,147.2L86.1,147.2l0.1,0.1l0.1,0.1l0.1,0.1l0.2,0l0.2-0.1l0.2-0.2l0.1-0.4v-0.2
	l-0.1,0.1l-0.1,0l-0.2,0.1l-0.2,0l-0.2,0.1L86.1,147.2z M137.5,149.9l0.1,0.1l0,0.1l-0.1,0.1l-0.1,0l0,0.1l0.1,0.2l0.2,0.1l0.4,0.1
	l0.1,0l0-0.1l0-0.1l-0.1,0l-0.1-0.2l0-0.3l-0.2-0.6l-0.1,0l-0.2,0l-0.1,0l-0.1,0.1l0,0.1l0,0.1l0,0.1l0,0.1l0.1,0.1L137.5,149.9z
	 M136.9,151.1l0.1,0.1l0.1,0l0.2,0.2l0.1,0l0.2,0l0.2-0.1l0.1-0.1l0-0.1l-0.1-0.2l-0.1-0.1l-0.3,0l-0.3-0.2l-0.1-0.1l0-0.2l0-0.2
	l-0.2-0.2l-0.2-0.1l0,0.4L136.9,151.1z M124.3,153.4l-0.2-0.2l-0.2-0.1l-0.1,0.1l0,0.2l0.2,0.7l0.2,0.5l0.2,0.1l0.1-0.2l0-0.3l0-0.3
	L124.3,153.4z M85.1,160.3L85.1,160.3l0-0.4l-0.1-0.3l-0.1-0.2l-0.2,0l-0.2,0.1l-0.1,0.1l0,0.3l0.1,0.3l0.3,0.2l0.3,0.1L85.1,160.3z
	 M127,161.3l-0.2-0.1l-0.2,0.1l-0.1,0.2l0,0.1l0.2,0.1l0.1,0l0.1,0l0.1-0.1l0.1-0.1l0-0.1L127,161.3z M78.5,162l-0.2-0.2l-0.1-0.1
	l-0.1,0l-0.2,0.1l0,0.2l0.1,0.2l-0.1,0.4l0,0.1l0.1,0.1l0.1,0.1l0.3-0.1l0.2-0.1l0-0.3l-0.1-0.3l0-0.1L78.5,162z M125.4,161.8
	l-0.2,0l-0.1,0.1H125l-0.2,0.2l0,0.1l0,0l-0.2,0.1l-0.1,0.1l0,0.1l-0.1,0.1l0.1,0.1l0.1,0.2l0.1,0l0.1,0l0.2,0l0.2-0.1l0.1-0.2
	l0.3-0.4l0-0.1L125.4,161.8L125.4,161.8z M126.9,162.6l0,0.2l0,0.1l0.1,0.1l0.4,0.1l0.2,0l0.1-0.1l0-0.4l-0.1-0.2l-0.1-0.1l-0.1,0
	l-0.2,0l-0.2,0.2L126.9,162.6z M125.1,164.2l-0.2,0.1l-0.2,0.2l0,0.2l0.1,0.2l0.2,0.1l0.2,0.1l0.2-0.1l0.2-0.2l0-0.3l-0.2-0.2
	l-0.2,0L125.1,164.2z M54.6,165.2l-0.1-0.1l-0.1,0h-0.1l-0.1,0l-0.1,0l-0.1-0.2l0,0l0,0.1l0.1,0.2l0.1,0.1l0.1,0l0.3,0.1l0.1,0
	l0.1-0.1l0.1,0l0.1,0l0.1,0l0-0.1l-0.1-0.3l-0.1-0.1l-0.1,0l-0.1,0l0,0l0.1,0.2l0,0.1l-0.1,0L54.6,165.2z M135,166.8l0-0.1l-0.1-0.1
	l-0.1,0l-0.1,0l-0.1-0.1l-0.1,0l-0.1,0l-0.2-0.1l-0.1,0l0-0.1l0-0.1l-0.1-0.1l-0.1,0l0,0.2l0,0.2l0.2,0.3l0,0.1l0,0.1l0.1,0.2l0,0.2
	l0.1,0l0.1,0l0.1,0l0.1,0.1l0,0.1l0.3-0.1l0-0.1l0-0.1l-0.1-0.3L135,166.8L135,166.8z M106.7,169.4L106.7,169.4L106.7,169.4
	l-0.1,0.2l0,0l-0.1-0.1l-0.2,0l-0.1,0.1l0,0.1l-0.3,0.1l0,0.1l0,0.1l0.1,0.1l0.1,0l0.1,0.1l0.2,0.1l0.3-0.1l0.1-0.2l0-0.1l0-0.1
	L106.7,169.4z M68.1,176l0.1,0l0.3-0.3l0-0.2l-0.1-0.1l-0.1,0l-0.6,0.3l0,0.1l0,0.1l0.1,0.1L68.1,176z M128.9,181.7l-0.6,0.7l0,0.3
	l0.4,0l0.4-0.3l0.1-0.1l0.1-0.1l0-0.1l0-0.1l0-0.1l0.1-0.1l0-0.2l-0.2-0.1L128.9,181.7z M2.5,225.5l-0.3,0l-0.1,0.1l0,0.3l0.1,0.1
	l0.4,0l0.2-0.1l0.1-0.2l-0.1-0.2L2.5,225.5z M148.8,247.4l-0.2-0.1l-0.2,0l-0.1,0l-0.1,0.1l-0.1,0.1l0,0.1l0.1,0.2l0.1,0.2l0.1,0.2
	l0.2,0.1l0.2,0l0.1-0.2v-0.2l-0.1-0.2L148.8,247.4z M82.7,260.8l-0.2-0.1l-0.2,0.2l-0.1,0.2l0,0.1l0.1,0.1l0.1,0.1l0.1,0l0.3-0.2
	l0-0.1L82.7,260.8z M82.8,261.7l0.1,0l0.2,0l0.1-0.1l0-0.1l0-0.1l0-0.1l-0.1-0.1l-0.1,0l-0.3,0.2l0,0.1L82.8,261.7z M76,263
	l-0.2-0.1l-0.2,0l-0.3,0.3l-0.1,0.2l0,0.2l0.1,0.1H76l0.1-0.1l0-0.2L76,263L76,263z M80.9,263l-0.1,0l-0.1,0l-0.1,0.1l0,0l0-0.1
	l0-0.1l0.1,0l0-0.1l-0.2-0.1l-0.1,0l-0.1,0.3l0,0.1h0.1l0.1,0l0,0.1l0,0.1l-0.1,0.2l-0.1,0.1l-0.1,0l-0.1,0.1l-0.1,0.1l0,0.1
	l0.2,0.1l0.5-0.1l0.1-0.2l0.2-0.2l0.3-0.2l0-0.1L80.9,263z M78.8,264.2l-0.2-0.1l-0.1,0l-0.3,0.4l0.1,0.2l0.2,0.1l0.2-0.2l0.1-0.2
	l0-0.1l-0.1-0.1L78.8,264.2z M69.7,269l-0.4,0.2l-0.1,0l-0.1,0l0,0.1l0.1,0.1l0.3,0.1l0.1,0l0.1-0.1l0.1,0l0.1,0l0.1-0.1L70,269
	l-0.1-0.1L69.7,269z M65.3,271.1l-0.1,0l-0.4,0.1l-0.1,0.1l-0.1,0.3l-0.2,0.2l0,0.2l0.1,0.2l0.2,0.1l0.1,0l0.1,0l0.2-0.3l0.2-0.1
	l0.1-0.2v-0.1l0-0.1l0-0.2L65.3,271.1z M145.2,272.6L145.2,272.6l-0.3-0.2l-0.2,0l-0.1,0.2l0,0.1l0,0l-0.1,0l-0.1,0.1l0,0.1l0.1,0
	l0.1,0l0,0l-0.1,0.1l-0.2,0v0.1l0,0.1l-0.1,0.1l0,0.1l0.1,0l0,0l-0.1,0l0,0l0.1,0.1l0.1,0.1l0,0.3l0.1,0.1l0.2,0l0.3-0.5l0-0.2
	l0.1-0.7L145.2,272.6z M61.8,273.9l0.1,0l0.1-0.1l0.1,0v-0.1l-0.2-0.3l-0.1-0.1l-0.1,0l0,0.1l0.1,0.1h0.1l0.1,0.2l0,0.1l-0.1,0
	l-0.1-0.1l-0.1,0l0,0.1l-0.1,0l-0.1-0.1l-0.1,0l-0.1,0l0,0.1l0.1,0.1L61.8,273.9z M56.4,277.7L56.4,277.7l0.3-0.1l0.3-0.2l0-0.1
	l0-0.1l0-0.1l-0.1-0.2l-0.1-0.1l-0.1,0l-0.1,0l-0.1-0.1l-0.1,0l-0.1,0l0,0l0-0.1l0.1,0l0.1,0.1l0.1,0l0,0l-0.3-0.3l-0.1,0l-0.1,0.1
	l-0.1,0.2l0,0.3l-0.2,0.4l0,0l0.1,0l0.1-0.1l0,0l-0.1,0.1l0,0.1l0,0.1l0.1,0l0.2,0L56.4,277.7L56.4,277.7z M50.8,276.8l0.1-0.1
	l0-0.1L50.8,276.8L50.8,276.8z M41.8,284.4L41.8,284.4l-0.1,0.1l0,0.1l-0.2,0.2l0,0.1l-0.1,0.1l0,0.1l0.1,0l0.1,0l0.1,0l0,0.1l0,0.2
	l-0.1,0.2l-0.1,0.1l0,0.1l0,0.1l0,0.1l-0.1,0.1l0,0.1l0.1,0.1l0.1,0l0.3-1.7L41.8,284.4L41.8,284.4z M90.8,48.8L90.8,48.8l0.1,0.1
	L90.8,48.8z M73.2,201.7L73.2,201.7l0-0.2l-0.1,0.2l-0.1,0.2l-0.1,0.2l-0.2,0.1l-0.1,0.1l-0.2,0.4l0,0.1l0.2-0.1l0.2-0.2l0.4-0.5
	l0,0V201.7L73.2,201.7L73.2,201.7z M44.5,175.8l0.2,0.1l0.1-0.1l0.3-0.3l0.3-0.3l0.1-0.1l-0.1-0.1l-0.3-0.2l-0.1,0l-0.1,0.1l0,0.1
	l-0.1,0.1l-0.3,0.1l0,0l-0.1,0.1l0,0.2L44.5,175.8z M45.3,176.9l-0.7-0.3l-0.1,0.2l0.1,0.7l0.1,0.1l0.2,0.1l0.2,0.2l0.1,0.3l0.1-0.1
	l0.1-0.1l0.1,0l0.1,0.1h0.1l0-0.2l-0.1-0.3l-0.1-0.2l-0.1-0.2L45.3,176.9z M1,228.2l0.1,0.2l0.2,0.2l0.2-0.2l0.2,0l0.2,0l0.2-0.1
	l0-0.1l-0.2-0.5l-0.2-0.2l-0.3,0.1l-0.5,0.4l0.2,0.1L1,228.2z M4,226.7l-0.4,0l-0.2,0l0,0.2l0.2,0.2l0.4,0.1l0.4-0.1l0-0.2L4,226.7z
	 M79.1,252.5l-0.1,0.3l-0.1,0.2l-0.1,0.1l0.1,0.2l0.2,0.2l0.1,0.2l0,0.4l0.1,0.1l0.1-0.1l0.1-0.4v-1.2l-0.2-0.3L79.1,252.5z
	 M51.3,214.6L51.3,214.6L51.3,214.6L51.3,214.6L51.3,214.6z M51.1,214.7L51.1,214.7L51.1,214.7L51.1,214.7z M51.2,214.5L51.2,214.5
	L51.2,214.5L51.2,214.5L51.2,214.5L51.2,214.5L51.2,214.5L51.2,214.5z M51.2,214.6L51.2,214.6L51.2,214.6L51.2,214.6L51.2,214.6
	L51.2,214.6L51.2,214.6L51.2,214.6L51.2,214.6z M85,0.1L85,0.1l-0.1,0l0,0.2L85,0.1z M84.7,0.9L84.6,1l0.1,0L84.7,0.9z M70.3,134.5
	l0.1-0.1l-0.1-0.4l-0.1-0.1l-0.1,0l-0.2,0.1l-0.1,0l-0.1,0l-0.1,0l0,0.1l0.5,0.4L70.3,134.5z M81,144.7L81,144.7l-0.3,0l-0.2,0.1
	l-0.1,0.2l0,0.2l0,0.1l0.1,0.1l0.1,0.2l0.1,0l0.1,0l0.1,0.1l0.1,0l0.1-0.1l-0.1-0.1l0-0.1l0,0l0.1,0l0.1-0.1l0-0.2l-0.1-0.2
	L81,144.7z M117.1,137.3l-0.2,0l-0.1,0l-0.1-0.1l-0.3-0.2l-0.3-0.1l-0.3-0.1l0.1,0.2l0.4,0.4l0.4,0.2l0.2-0.1L117.1,137.3
	L117.1,137.3z M122.5,153.2l-0.3-0.2l-0.2,0v0.2l0.1,0.4l0.2,0.4l0.3,0.3l0.2-0.2l-0.1-0.4L122.5,153.2z M70.6,158.2l0.2,0.1l0.1,0
	l0.1-0.1l0-0.2l-0.2-0.4l0,0l-0.1-0.1l-0.1-0.1l-0.1-0.6l-0.2-0.4l-0.5-0.2l-0.3,0.5l0.2,0.5l0.3,0.2l0.2,0.2l0.1,0.2l0.1,0.2
	l0.2,0.1L70.6,158.2z M67.2,267.8l-0.2,0.3l0,0.5l0.3,0.2l0.2-0.2l0.1-0.4l-0.2-0.3L67.2,267.8z M66.4,269.2l0.2-0.1l0.2,0l-0.1-0.1
	l-0.3-0.2l-0.2-0.1l-0.3,0l-0.4,0.2l-0.2,0.3l0,0.2l0.2,0.1l0.2-0.1l0.3,0L66.4,269.2z M48.3,279.7L48.3,279.7l0.2,0l0.1-0.2l0-0.2
	l-0.1-0.2l0-0.2l0-0.2l-0.1,0l-0.3,0.2l-0.2,0.2l-0.4,0.6l-0.1,0.3l0.1,0.1l0.4-0.1l0.2-0.1l0.1-0.1L48.3,279.7L48.3,279.7z M49,283
	L49,283l0.2-0.2l0-0.2l-0.1-0.3l-0.4-0.2l-0.1-0.1l-0.2-0.1l-0.2,0.1l0,0.3l0.1,0.4l0.4,0.3H49z M48.9,283.7l-0.3,0.1l0.1,0.2
	l0.3,0.1l0.3,0l0.1,0l-0.1-0.2L48.9,283.7z M77.5,163.5l-0.6-0.2l-0.4,0l-0.2,0l-0.3,0.1l-0.2,0.2l-0.1,0.2l0.1,0l0.1-0.1l0.1,0
	l0.1,0.1l0.1,0l0.1,0l0.2,0.1l0.3,0.1l0.4,0l0.4-0.2l0.1-0.2L77.5,163.5z M122.6,159.8l-0.2,0.2l-0.1,0.2l0.1,0.2l0.2,0.1l0.2,0
	l0.3-0.2l0.2-0.1l0.3,0l0-0.2l-0.4-0.1l-0.4,0L122.6,159.8z M113,127.5l0,0.2l0,0.1l0.1,0l0,0l0.1,0l0,0.1l0.1,0.1l0.8-0.5l0.1-0.2
	l-0.1-0.2l-0.1,0l-0.1-0.1l-0.1-0.1l-0.2-0.1l-0.1,0l0,0.1l0,0.1l0.1,0l0,0l0.1,0.2l0,0.1l0,0.1l0,0l0-0.1l0,0l-0.1,0l-0.1,0
	l-0.1,0.1l-0.1,0l-0.1,0.1l0,0.1l0,0l0-0.1l-0.1,0l-0.1,0l0,0l0-0.1l-0.1,0l-0.1,0.2l0,0.1L113,127.5z M66.1,132.4l0.6,0.4l0.6,0.1
	l0.2,0l0.2-0.2l0-0.2l-0.1-0.1l-0.3,0l-0.5,0l-0.6-0.2L66,132l-0.2-0.2l0,0l0,0.1L66.1,132.4L66.1,132.4z M133.6,167l-0.2-0.1l0-0.1
	l0-0.1l0-0.1l-0.1-0.1l-0.1-0.1l-0.6-0.3l-0.2-0.2l0,0h-0.1l-0.2,0.3v0.1l0.1,0.2l0.1,0.2l0,0.2l0.1,0.2l0.2,0.1l0.2,0.1l0.2,0.2
	l0.2,0.3l0,0.3l-0.1-0.1l-0.1,0l0.2,0.6l0.2-0.2l0.1,0.1l0,0.2l0,0.1l0.4,0.5l0.1-0.1l0.1-0.2l0.1-0.2l0-0.4l0-0.2l0.1-0.2l-0.3,0
	l-0.2-0.1l-0.1-0.1l-0.1-0.2l0-0.2L133.6,167z M149.7,182.8l-0.3-0.3l-0.2-0.9l-0.4-0.2l-0.4,0.2l-0.1,0.5l0.1,0.4l0.3,0.2l0.6,0.3
	l0.2,0.1l0.2,0.2l0.1,0.1l0.2,0l0.3,0l0.3,0l0.2-0.1l0.1-0.2l-0.2-0.3l-0.2-0.1l-0.5,0L149.7,182.8z M152.4,202l0.4,0.2v0.1l-0.1,0
	l-0.2,0v0.1l0.2,0l0.2,0l0.1,0.1l-0.1,0.3l0.1,0l0.3-0.1l0.2-0.1l0.1-0.2l0-0.3l-0.1-0.2l0.3-0.7l0.1-0.4l-0.2-0.2l-0.3-0.2l0-0.4
	l0-0.4l0-0.3l-0.1,0l-0.2,0.1l0-0.1l0-0.1l-0.1-0.1l-0.3,0.1l-0.1,0.4l0,0.4l0.2,0.3l0,0.1l0,0.2v0.1l0,0.2l-0.1,0.1l-0.1,0
	l-0.1,0.1l-0.1,0.4L152.4,202v0.1V202z M84.6,263l-0.5,0.2l-0.5,0l-0.4-0.2l-0.9-0.5l-0.3,0l0.1,0.3l0.3,0.4l0.9,0.6l0.2,0l0.8-0.3
	l0.4-0.2l0.1-0.1l-0.1-0.2L84.6,263z M66.9,271.2l-0.3-0.2l-0.2,0l-0.2,0.1l-0.2,0.1l-0.2,0.2l-0.1,0.2l0.1,0.2l0.1,0.2l0.2,0.2
	l0.1,0.1l0.5,0.2l0.3,0l0.2-0.4l-0.1-0.3L66.9,271.2z M83.4,14l-0.3,0L83,14.1l0,0.1l0,0.2l0.2,0.9l0.2,0l0.1,0l0.4-0.4l0-0.3
	l-0.2-0.4L83.4,14z M72.3,37.3l0.6,0.6l0.2-0.5l-0.1-0.6l-0.2-0.7l-0.2-0.7l-0.1-0.1l-0.1-0.1L72.4,35l0,0.4l-0.3,0.8l0,0.4l0.1,0.4
	L72.3,37.3z M90.4,150.5l-0.1,0.1l-0.1,0.4l-0.1,0.1l-0.1,0.1l0,0.1l0,0.1l0,0.1l0,0.1l0,0.1l0,0.4l0.1,0.3l0.2,0.3l0.3,0.3l0.5-0.5
	l0-0.6l-0.2-0.6l-0.3-0.5v-0.2L90.4,150.5z M61.7,259.3l0.4-1.2l0-0.3l0-0.1l-0.1-0.2l-0.1-0.1l-0.1-0.1l-0.2,0l-0.2,0.1l-0.1,0.2
	l-0.1,0.4l-0.2,0.4l-0.1,0.1l0,0.2l-0.1,0.2l-0.1,0.2l-0.1,0.1l-0.2,0l-0.2,0.1l-0.1,0.1l0.1,0.2l0.2,0.1l0.7,0.1l0.2,0l0.2-0.1
	l0.1-0.1L61.7,259.3z M26.7,246l-0.2-0.1l-0.2,0l-0.2,0.1l-0.2,0l-0.3-0.1l-0.3,0.1l-0.2,0.1l-0.1,0.2l0,0.2l0.1,0.3l0.2,0.1
	l0.5,0.1l0.4,0.1l0.3,0l0.2-0.1l-0.2-0.4l0-0.2l0.3,0.1l0.1-0.1l-0.2-0.4L26.7,246z M116.2,174.9l-0.5-1.4l-0.1-0.2l-0.1-0.1
	l-0.2,0.2l-0.3,0.3l-0.1,0.2l-0.1,0.2l0.1,0.4l0.4,1.1l0.2,0.3l0.1,0l1.1-0.1l0.1-0.1l-0.1-0.2l-0.2-0.2L116.2,174.9z M47.3,170.8
	l0.2,0.1l0.1,0.1l0.1,0.2l0.1,0.2l0,0.1l0.2-0.1l0.1-0.2l0.1-0.2l0.1,0l0.3,0.1l0.2,0l-0.1,0.2l-0.1,0.2l0,0.2l0.2,0.2l0.3-0.5
	l0.3-0.6l0.1-0.7l-0.2-0.6l-0.1-0.1l-0.2,0l-0.2,0.1l-0.2,0.1l0.3,0.1l0.1,0.2l-0.1,0.3l-0.1,0.3l-0.1-0.1l-0.1-0.1l-0.1,0l-0.1,0.2
	l-0.2-0.1l-0.2-0.3l-0.1-0.2l0,0.5l-0.1,0.3l-0.2,0.1l-0.3-0.2l-0.2-0.3l-0.2-0.2l-0.2,0.3l0.2,0.1L47.3,170.8z M5.1,224.2l-0.2,0.1
	l-0.1-0.1l0.1-0.1l0-0.1l0-0.2L4,224.6l-0.1,0.2l0.1,0.4l0.4,0l0.5-0.3l0.4-0.3l0-0.2l-0.1-0.1L5.1,224.2z M6.8,225v-0.5l-0.5-0.3
	l-0.1,0h0l0,0l0-0.1L6,224.2l-0.1,0.1H5.7l-0.1-0.1l-0.1,0.2l-0.1,0.5l-0.1,0.2l0.1,0.4l0.1,0.6l0.2,0.4l0.5-0.3l0.2,0.1l0.2-0.1
	l0.1-0.2l0.1-0.2l-0.2-0.4L6.8,225z M72.5,266.8l-0.2-0.2l-0.2-0.2l-0.3-0.1l-0.3,0l-0.2,0.1l-0.2,0.2l-0.1,0.2l0,0.2l0.2,0.3l0.3,0
	l0.6-0.2l0.5,0l0.1,0l0.1-0.2l-0.1-0.1L72.5,266.8z M43.1,283.6l-0.1-0.3l0-0.1l0-0.1l0-0.1l-0.1-0.1l-0.1-0.2l-0.2-0.1l-0.2-0.1
	l-0.2,0l0.2,0.5l0.1,0.5l0.1,1.1l-0.1,1v1l0.2-0.2l0.5-1.1l0.1-0.3l0-0.3l0-0.3l-0.1-0.3L43.1,283.6z M74.9,160.3l0.1,0.3l0.1,0.3
	l0.2,0.2l0.3,0l0.2-0.2l0-0.3l-0.1-0.3l-0.1-0.3l-0.7-0.8l-0.2-0.1l0,0l0,0.1l-0.1,0.2l0.1,0.1l0.1,0.1l0.1,0.2l-0.1,0.4L74.9,160.3
	z M70.4,180.1l0-0.3l-0.1,0l-0.3,0.3l-0.6,0.4l-0.1,0.1l-0.1,0.5l0.3,0.2l0.5,0l0.4-0.1l-0.1-0.3l0.2-0.5V180.1z M56.6,161.9l0-0.2
	l-0.1-0.1l-0.1-0.1l-0.2,0l-0.8,0.3l-0.2,0l0.6,1.1l0.3,0.8l0.2,0.3l0.2-0.1l0-0.1l-0.2-0.3l0-0.2l0-0.2l0.1-0.5l0-0.1l-0.1-0.1
	l0-0.1l0.1-0.1l0.1,0l0.2,0l0-0.1L56.6,161.9z M92.5,113.6l-0.3,0.1l-0.3,0.1l-0.4,0.1l-0.4,0.2l0,0.3l0.6,0.1l0.4,0l0.4-0.1
	l0.4-0.3l0-0.3l-0.1-0.1L92.5,113.6z M118.5,138.2V138l-0.1,0l-0.1-0.1l-0.1-0.1l-0.7-0.2l-0.2,0l-0.2,0.1l-0.1,0.1l0.2,0.2l0.1,0.2
	l0,0.3l-0.1,0.3l0,0.2l0.2,0.3l0.1,0.1l0.2,0.3l0.2,0l0.3-0.1l0-0.1l-0.1-0.2l-0.1-0.3l0.1-0.3L118.5,138.2z M118.3,138.7
	L118.3,138.7L118.3,138.7l0,0.3l0.1,0.2l0.2,0.2l1.1,0.6l0.2-0.1l0.2,0l0.1,0l0.2,0l0,0l0.2,0.1l0.1-0.3l0.1-0.2l0.1-0.1l0.2-0.1
	l0,0l0.2-0.1l-0.1,0l-0.1,0l-0.2-0.1l-0.5-0.1l-0.1-0.1v0.2l-0.3-0.2l0,0l0,0l-0.3-0.2l-0.1,0.2l-0.2,0.1l-0.4-0.2L118.3,138.7z
	 M123.4,140.4l-0.2-0.3l-0.3-0.2l-0.7-0.2l-0.3,0l-0.2,0.1l-0.5,0.2l-0.3,0.1l0.1,0.1l0.5,0.2l0.3,0.1l0.4,0l0.2,0l0.2,0.1l0.6,0.1
	l0.2-0.1L123.4,140.4z M130.1,193.1l0-0.1l-0.2,0l-0.1,0.1l-0.1,0.1l-0.2,0.2l-0.2,0l-0.1,0l-0.1,0.1l-0.1,0.1l-0.1,0l-0.1,0
	l-0.1,0.1l0,0.2l0,0.2l0,0.1l0.1,0.2l0.2,0.1l0.2-0.1l0.2-0.3l0.2-0.1l0.2,0.1l0.1-0.1l0-0.2l0-0.3L130.1,193.1z M115.5,203.1
	l0.3,0.1l0.3,0l0.3-0.1l0.7-0.5l0.3-0.3l0.1-0.2l-0.1-0.2l-0.3-0.2l-0.3,0l-0.7,0.3l-0.3,0.2l-0.2,0.1l-0.1,0.1l-0.2,0.1l-0.2,0.1
	l0,0.1l0.2,0.1L115.5,203.1z M143.9,273.5l-0.2-0.1l-0.5,0l-0.3,0.2l-0.3,0.4l-0.1,0.1l0,0.1l0.2,0.1l0.1,0.2l0.2,0.1l0.3-0.1l0.3,0
	l0.2,0.1l0.1,0l0.1-0.2l0-0.5L143.9,273.5L143.9,273.5z M125.7,166.6l0.1,0.2l0.4,0.4l0.1,0.2l0.1,0.4l0.5,1.2l0.2,0.3l0.6,0.6
	l0,0.1l0,0.1l0.1,0.1l0.1,0.1l0.1,0l0.1-0.1l0-0.1l0.4,0l0.4,0.1l1,0l0.3-0.1l0.1-0.2l0.2-0.6l-0.1-0.4l-0.4-0.2l-0.1-0.2l-0.4-0.9
	l-0.2-0.6l-0.2-0.3l-0.3-0.2l-0.3-0.1l-0.2,0l-0.5,0l-0.6,0l-0.2,0l-0.8,0.3L125.7,166.6z M150.1,247.4l0-0.4l0.1-2.2l-0.1-0.4
	l-0.2-0.2l-0.3-0.2l-0.3-0.3l-0.1-0.1l-0.1-0.1l-0.1,0l-0.2,0.1l-0.1,0.2l-0.1,0.9l-0.1,0.2l-0.1,0.1l-0.1,0.1l-0.1,0.2l0,0.2l0,0.2
	l0.1,0.1l0.1,0l0.3,0.1l0.1,0l0.1,0.1l0.1,0.6l0.1,0.2l0.2,0.4l0.1,0.7l0.1,0.3l0.2,0.3l0.2,0.1l0.1-0.4l0.1-0.2l0.1-0.2l0-0.1
	L150.1,247.4z M102.3,240.2l-0.2-0.3l-0.3-0.3l-0.3-0.2l-0.3-0.1l-0.2,0.1l-0.1,0.2l0,0.2l-0.1,0.2l-0.3,0l-0.2-0.2l-0.2-0.3
	l-0.3-0.1l-0.4,0.2l-0.2,0.6l0,0.6l0.1,0.4l0.1,0.3l0.1,0.2l0.2,0.1l0.3,0l0.1-0.1l0.1-0.2l0.1-0.1l0.1,0l0.2,0l0.1,0l0.2-0.1
	l0.5-0.4l0.1,0l0.1,0l0.1,0l0.1-0.1l0-0.1l0-0.2l-0.1-0.3l0.1,0.1L102.3,240.2z M139.2,194l0.1,0.3l0.3,0.3l0.6,0.3l0.6,1.1l0.4,0.5
	l0.1,0.1l0,0.1l0,0.1l0.1,0.1l0.2,0l0.1-0.1l0.1-0.1l0.1-0.1l0-0.1l-0.2-0.6l-0.1-0.4l-0.2-0.3l-0.2-0.2l-0.2-0.2l-0.2-1.2l-0.2-0.3
	l-0.2-0.1l-0.7-0.3l-0.3-0.3l-0.2-0.1l-0.2,0l-0.2,0.2l0,0.4L139.2,194z M127.2,183.2l-0.5,0.5l0,0.6l0.9,0.3l0.8-0.2l0.2-0.4
	l-0.3-0.5l-0.6-0.4H127.2z M124.6,185.1l0.3,0.2l1.3-0.7l0.2-0.2l0-0.4l-0.1-0.2l-0.1-0.2l-0.2-0.2l-0.2-0.1l-0.3,0l-0.2,0.1
	l-0.1,0.2l-0.1,0.3l-0.1,0.3l0,0.2l-0.1,0.3l-0.2,0.2L124.6,185.1z M82.9,7.7l0.4-0.4l0.3-0.5l0.2-0.5l0-0.3l0-0.3l0-0.3l-0.1-0.3
	l-0.2-0.2l-0.2,0l-0.2,0.1L83,5.5l-0.2,0.6l-0.3,0.5l-0.2,0.5l-0.1,0.5l0.3,0.2L82.9,7.7z M84.8,14l0.3-0.1l0.2-0.2l0-0.2l-0.1-0.1
	l-0.1-0.1l0-0.2l0.1-0.1l0.4-0.3l0.6-0.4l0.1-0.1l0-0.2l-0.1-0.1l-0.1-0.1l-0.2,0l-0.2,0.1l-0.3,0.2L85.2,12l0,0.2l-0.7,1.1
	l-0.1,0.3l0.1,0.4L84.8,14z M84.2,28.7l0.3,0.2l0.4,0.4l0.2,0.1l0.3-0.1l0.2-0.3l0.1-0.6l0.1-0.2l0-0.1L85.6,28l-0.1-0.1l-0.1,0
	l-0.1,0l-0.2,0.2l-0.1,0.1l-0.2,0l-0.3,0l-0.3,0.1l-0.1,0l-0.1,0l0,0.2l0,0.2L84.2,28.7z M75.5,32.6l0.1,0.1l0.1,0.1l0.1,0l0.1,0
	l0.1,0l0.7,0.4l0.1,0.1l0.5,0.2l0.1-0.1l0.1-0.1l0-0.1l0.1-0.1l0.1,0l0.2,0l0.1,0l0.1-0.1l0-0.1l0-0.1l0-0.1l0-0.1l0-0.1l-0.2-0.3
	l0-0.1l0-0.1l0-0.1v-0.9l-0.2-0.2l-0.2,0l-0.3,0.1l-0.3,0.1l-0.3,0l-1-0.3l-0.3,0.4L75,31.4l-0.3,0l0,0.1l0.5,0.6L75.5,32.6z
	 M73.8,40.9l0.4,0.1l1.5-0.1l0.4-0.1l0.4-0.2l0.4-0.3l-0.2,0l-0.2,0l-0.1-0.1l-0.1-0.1l-0.2-0.2l-0.2,0l-0.5,0.1L74.8,40l-0.9,0.3
	l-0.3,0l-0.1,0.1l0.1,0.2L73.8,40.9z M83.1,40.6l0,0.4L83,41.2l0.2,0.2l0.3,0l0.2-0.2l0.1-0.4l0.2-0.3l0.6-0.5l0.2-0.3l0.3-0.5
	l0.5-0.2l0-0.2l-0.1-0.2l-0.2-0.2l-0.1-0.1l-0.1-0.2L85,38L84.9,38l-0.1,0l-0.3,0.1l-0.1,0l0,0.1l-0.1,0l-0.1-0.1l-0.1,0L84,38.3
	l-0.2,0.4l-0.1,0.1l0,0.1l0,0.3l-0.1,0.3l-0.2,0.2l0.4,0.4l-0.2,0.3L83.1,40.6z M84.3,114.2l0,0.5l0.1,0.4l0.4,0.2l0.4-0.1l0.4-0.2
	l0.3-0.3l0.3-0.9l0-0.2l-0.2-1.1l-0.1-0.4l-0.2-0.3l-0.3,0l-0.1-0.2l0-0.2l0-0.6l0-0.1l0.1-0.1l0.5-0.3l0.2-0.1l0-0.2l-0.1-0.4
	l-0.1,0.1l-0.1-0.1l0-0.2l0.2-0.2l0.3-0.1l0.2,0.1l0.4,0.4l0.1-0.4l-0.2-0.3l-0.3-0.2l-0.4,0l0.1-0.3l-0.1-0.2l-0.2-0.1l-0.1,0.1
	l-0.3-0.2l-0.7-0.1l-0.3,0l-0.1,0.1l-0.1,0.3l-0.3-0.1l-0.5-0.3l-0.2,0.2l-0.1,0.4l-0.1,1.2l0.1,0.1l0.2,0l0.3,0.1l0.1,0.2l0.4,0.6
	l0.1,0.2l0,0.6l0.1,0.2l0.3,0.1l0.3,0.4l0.2,0.8l0,0.7l-0.3,0.1L84.3,114.2z M89.9,113.4L89.9,113.4l0.3-0.1l0-0.4l-0.2-0.4
	l-0.2-0.2l-0.3,0l-0.2,0l-0.2-0.1l-0.1-0.2l0-0.2l0.1-0.1l0.1-0.1h-0.6l-0.2,0.1l-0.2,0l-0.1-0.1l0-0.2l-0.2,0.2l0,0.1l-0.3-0.1
	l0,0.1l0.1,0.2l0.1,0.2l0.1,0.1l0.2,0.1l0.5,0.1L89.9,113.4z M84.9,123.5l0.3,0.4l0.3,0.2l0.2,0.1l0.7,0.6l1.1,0.7l0.6,0.5l0.4,0.2
	l0.3,0l0.1-0.4l-0.2-0.4l-0.4-0.3l-0.8-0.5l-2.2-1.9l-0.1-0.2l-0.1-0.1l-0.1-0.1l-0.2,0l-0.2,0.1l-0.1,0.1l-0.1,0.2l0.1,0.3
	L84.9,123.5z M120.5,132.5l0.1,0.2l0.1,0.2l-0.1,0.2l0.4,0l0.3,0.1l0.5,0.4l0.9,0.8l0.3,0.1l0.2-0.1l0.1-0.3l0.1-0.3l0.1-0.2
	l0.2-0.2l0.3-0.1l0.3-0.1l0.2,0.1l0.2-0.1l0.2,0.3l0.2,0.4l0.3,0.2l0-0.3l0.3-1l0-0.3l0.1-0.1l0.2,0l0.4,0l0.4-0.1l0-0.3l-0.3-0.5
	l0-0.2l0.1-0.4l0.1-0.5l0-0.1l-0.1-0.2h0.2l0.3-0.1l-0.1-0.2l-0.1-0.3l-0.1-0.2l-0.2-0.1l0.2-0.2l0.2-0.2v-0.1l-1-0.8l-0.5-0.2
	l-0.3,0.5H125l0-0.1l0-0.1l-0.1-0.1l0.1-0.1l-0.2-0.3l-0.1-0.1l-0.2-0.1l-0.1-0.7l-0.1-0.5l-0.2-0.4l-0.3-0.4l-0.3-0.3l-0.1-0.1
	l-0.1,0l-0.1,0l-0.2,0.1l-0.3,0.3l-0.2,0.1l-0.2-0.3l-0.1,0.2l-0.1,0.3v0.3l0.1,0.2l0,0.2l-0.1,0.2l-0.1,0.1l-0.1,0.1v0.1l0.1,0.3
	l0.2,0.7l0,0.3l-0.2,0.3l-0.1,0.2l0.1,1l-0.1,0.7l-0.2,0.6l-0.3,0.5l-0.4,0.4l-0.4,0.2l-0.2,0.2l0.1,0.2L120.5,132.5z M112.4,153.4
	l-0.2-0.3l-0.1-0.1h-0.6l-0.3-0.1l-0.3-0.2l-0.5-0.5l-0.2-0.1l-0.3,0l-0.3,0l-0.1,0.1l-0.1,0l-0.1,0.2l-0.1,0.2l0,0l0,0.1l0,0.2
	l0,0.1l-0.1,0l-0.2,0l0,0l-0.3,0.4l-0.2,0.1l-0.1-0.2l0.1-0.3l0.2-0.2l0.2-0.1l0.1-0.1l-0.3-0.6l0-0.3l0.3,0.1l0-0.1l0,0l-0.2,0
	l-0.2-0.1l-0.1-0.1l-0.2-0.1l-0.3-0.1l-0.5-0.1l-0.3-0.1l-0.2-0.1l-0.2-0.1l-0.1,0l-0.1,0.2l0.2,2l0.2,0.2l0.2,0.1l0.1,0.1l0,0.3
	l-0.1,0.4l-0.2,0.9l-0.1,0.5l-0.1,0.2l-0.5,0.6l0,0l0,0l0,0.5l0,0.1l0.3-0.1l0.4,0l0.6,0l0,0.3l-0.1,0.2l-0.2,0.1l-0.2,0.2l0.2,0.3
	l0.1,0.2l-0.1,0.1l-0.3,0l-0.2,0.1l-0.1,0.2l-0.1,0.2l-0.3-0.1l-0.1,0.3l0,0.7l-0.1,0.2l-0.1,0.2l-0.1,0.2l0,0.2v0.2l0,0.2L106,161
	l-0.2,0l-0.2,0.1l-0.1,0.3l-0.1,0.4l0,0.3l0.2,0.2l0.4-0.2l1.4-1.3l0.9-1.1l0.1-0.2l0.1-0.1l0.2,0l0.2-0.1l0.2-0.2l0.1-0.2l0.2-0.5
	l0.5-0.7l0.2-0.2l0.2-0.1l0.4-0.1l0.4,0l0.3,0.1l0.1,0.1l0.5,0.2l0.1,0.1l0.2,0.4l0.5,0.5l0.2,0.3l0.2,0.7l0.2,0.1l0.3,0l0.4,0.1
	l-0.3,0l0,0.2l0.1,0.2l0.4,0.2l0.2,0.2l0.2,0.2l0.1,0.2h0.1l0-0.1l0.1-0.2l0.2,0.5l-0.2,0l-0.2,0.1l-0.1,0.2l-0.1,0.2l0.2,0.2
	l0.3,0.3l0.4,0.2l0.4-0.2l0.6,0.3l0.3,0.1l0.2-0.1l0.3,0.5l0.3,0.2l0.6,0.2l0.4,0.4l0.5,0.2l0.6,0.5l0.2,0.2l0.3,0.7l0.2,0.3l0.2,0
	l0.1-0.3l-0.1-0.3l-0.1-0.3l-0.1-0.3l0-0.2l0.1-0.5v-0.4l-0.1-0.2l-0.4-0.9l-0.4-0.5l-0.1-0.2l0.2-0.2l-0.2-0.3l-0.1-0.1l-0.1-0.2
	l0.3,0.2l0.3,0.5l0.3,0.2l-0.1-0.3l-0.2-0.3l-0.7-0.9l-0.1-0.2l-0.2-0.6l-0.1-0.1l-0.1-0.1l-0.3-0.1l-0.1-0.1l-0.9-1.4l-0.2-0.3v0.1
	l-0.1-0.2l-0.2,0l-0.2,0.1l-0.2,0l-0.5-0.5l-0.4-0.3l-0.1,0.3l0.1,0.8l-0.4-0.5l-1.1-1.8l-0.1-0.2l-0.1-0.1l-0.2-0.1l-0.1,0l-0.2,0
	l-0.2,0l-0.1-0.1l-0.1-0.3l-0.3,0l-0.6,0.3l0-0.2l0.1-0.2l0.1-0.1l0.2,0v-0.1l-0.3-0.1l-0.2-0.3l-0.2-0.3L112.4,153.4z M114.8,150.4
	l0-0.1l-0.1-0.1l-0.8-0.5l-0.3-0.4l-0.2-0.2l-0.2,0l-0.1,0.2l0,0.3L113,150l-0.2-0.1h-0.1l0,0.2l0,0.2l2.5,3.8l0.5,0.5l0.1,0.2
	l0,0.2l0.1,0.2l0.1,0.1l0.1,0.1l0.1-0.1l0-0.2l-0.1-0.3l0-0.4l0-0.2l-0.1-0.1l0-0.1l-0.2-0.9l-0.2-0.6l-0.1-0.3l-0.1-0.3l-0.2-0.3
	l-0.1-0.3l0.1-0.3l-0.1-0.2l-0.2-0.1l-0.2-0.1h-0.2L114.8,150.4L114.8,150.4z M107.7,147l-0.1-0.9l-0.1-0.2l-0.1-0.2l-0.1-0.2
	l-0.3-0.2l-0.3,0.1l-0.4-0.1l-0.4-0.3l-0.3-0.3l-0.3-0.5l0,0l-0.1-0.2l-0.2-0.4l-0.1-0.2l-0.1-0.1l-0.4-0.3l-0.3-0.7l-0.3-0.4
	l-0.2-0.2l-0.2-0.2l-0.4-0.3l-0.2-0.1l-0.2-0.1l-0.1,0.4l-0.2,0.1l-0.3,0l-0.2,0.2l0,0.2l0.1,1l0.4,0.4l1,0.2l0.4,0.3l0.1,0.1l0,0.2
	l0.1,0.1l0.1,0.1l0,0.1l0.3,0.3l0.1,0l0.1,0.2l1.3,1.1l0.3,0.2l0.6,0.1l0.2,0.2l0.4,0.4l1.2,1.6l0.6,0.4l-0.3-0.7L107.7,147z
	 M93.4,154.2l0.3,0.1l0.4,0l0.4,0.1l0.3,0.3l0.4,0.7l0.2,0.1l0.3,0.1l0.1,0.1l0.3,0.4l0.1,0.1l0.2-0.1l0.3-0.2l0.3-0.2l0.2-0.2
	l0.3-1.2l0-0.2l-0.3-0.4l-0.1-0.2l-0.1-0.2l-0.1-0.4l-0.1-0.1l-0.2-0.1l-0.6-0.1l-1.9,0l-0.6,0.2l-0.4,0.4l0,0.6l0.1,0.3L93.4,154.2
	z M88.1,150.2l0.3,0l0.1-0.1l0-0.3l-0.2-0.2l-0.5-0.2l-0.2,0.4l-0.5,0.3l-1,0.3l-0.4,0.3l-0.1,0.4l0.1,1v0.6l-0.1,0.6l-0.3,0.5
	l-0.5,0.2l-0.2,0.3l-0.2,0.7l-0.1,0.6l0.1,0.1l0.7,0.7l0.2,0.1l0.2,0l0.1,0.1l0.1,0.2l-0.1,0.4l-0.2,0.2l-0.2-0.1l-0.2-0.4l-0.1,0.9
	l0.1,0.3l0.5,0l-0.1,0.3l0.1,0.2l0.4,0.4h0.1v-0.9l0.1-0.1l0.3-0.3l0.1-0.1l0.2,0.2l0-0.3l-0.2-0.2l-0.2-0.2l0.1-0.3l0.1-0.2
	l0.5-1.3l0.3-1.2l0.1-1.3l0.4-1.2l0.1-0.6l-0.1-1l0-0.2L88.1,150.2z M82.7,137.8l0.5,0.5l0.3,0.5l0.2,0.1l0.1,0.1l0.3,0l0.1,0
	l0.6,0.5l0.2,0.1l0.1,0.1l0.2,0.3l0.3,0.2l0.3-0.1l0.5-0.5l0.2-0.3l-0.2-0.4l0.4-0.5l1-1L88,137l-0.1-0.2l-0.3-0.2l-0.1-0.1l0-0.3
	l0-0.1l0.2,0l0.1,0l0.1-0.1l-0.1-0.3l-0.3-0.3l-0.4-0.1l-0.3,0.2l-0.1,0l-0.2-0.1l-0.1-0.1l0.2-0.2l-0.1-0.2l-0.2-0.1l-0.3,0.1
	l0.1-0.2l-0.1-0.2l-0.2-0.1l-0.2-0.2l-0.1,0.4l-0.4,0.1l-0.4-0.1l-0.3-0.3l-0.1,0.1l-0.2,0.2l-0.1,0.1l-0.4-0.6l-0.2-0.2l-0.2,0.1
	l-0.1,0.1l0,0.5l-0.1,0.2l-0.4,0.8l-0.1,0.2l-0.1,0.2l0,0.9l0.1,0.3l0,0.1l-0.1,0.4L82.7,137.8z M55.6,129.6l-0.3-0.2l-0.3-0.1
	l-0.2,0.1l-0.1-0.2l-0.4-0.2l-0.4-0.2l-0.3-0.1l-0.2,0l-0.1,0.1l-0.1,0.1l0,0.2l0.1,0.4l0.2,0.4l0.3,0.3l0.6,0.2l0.2,0.2l0.1,0.1
	l0.2,0l0.2,0l0.2,0.1l0.2,0.1l0.1,0.1l0.1,0.2l0.1,0.1l0.2,0l0.1,0.1l0.1,0.2l0.1,0.2l0.1,0.1l0.1-0.1l0.3-0.2l0-0.2l-0.1-0.1
	l-0.1,0l-0.1-0.1l-0.1-0.2l0.1-0.2l0.2-0.1l0.1-0.2l-0.6-0.9L55.6,129.6z M148.1,197.4l0.3,0.2l0.4,0.1l0.3-0.1l0.1-0.2l0-0.3
	l-0.2-0.3l-0.3-0.3l-0.2-0.3l0.2-0.3l-0.1-0.7l-0.1-0.1l0.1-0.1l0.1-0.2l0.1-0.3l0.1-0.2l0-0.2l-0.1-0.2l-0.3-0.3l-0.1-0.2l0-0.3
	l0.1-0.5l-0.3,0.1l-0.2-0.1l0-0.2l0.2-0.1l-0.1-0.1l0.2-0.3l-0.1-0.2l-0.2-0.2l-0.1-0.1l0-0.2l0.1-0.1l0.1,0l0.1,0l0.1-0.2l0.1-0.4
	l0.3-1.2l0-0.6l-0.2-0.6l-0.2-0.4l-0.1-0.1l-0.2,0l-0.1,0.1l-0.1,0.2l-0.1,0.4l0,0.7l-0.1,0.2l-0.1,0.1l-0.2,0l-0.1,0l-0.1-0.2
	l-0.1,0l-0.1,0l-0.1,0l-0.1,0.1l0,0.1l0.1,0.1l0,0.1v0.4l-0.1,0.1l-0.2,0l-0.4,0.1l0,0.3l0.1,0.3l-0.1,0.3l0.1,0.1l0,0.1l0,0l0.1,0
	l-0.2,0.2l0,0.2l0.1,0.2l0.1,0.3l-0.1-0.1l-0.1-0.1l-0.1,0l-0.1,0.1l0.1,0.3l0,0.4l-0.2,0.3l-0.3,0.1l0,0.2l0,0.4l0,0.1l0.2,0.1
	l0,0.2v0.2l0.1,0.2l0.2,0l0.2-0.1l0.1-0.2l0.1-0.1l0.2,0l0.2,0.1l0.1,0l0.1-0.2h0.1l0.1,0.2l0.2,0.3l0,0.1l0,0.2l-0.1,0.1l-0.1-0.1
	l-0.1-0.1l-0.2,0.4l0,0.4l0.2,0.3l0.4,0v0.1l-0.1,0.1l0,0.1l0.1,0.1l0.1,0.1l-0.1,0l-0.2,0l0.2,0.2l0.5,0.1l0.2,0.1l0.1,0.3l0,0.3
	L148.1,197.4z M153.5,198.2l0.1,0l0.1,0.1l0,0.1l0,0.1l0,0.1l0,0.1l0.4,0.6l0.3,0.3l0.3,0.2l-0.1-0.4h0.2l0.7,0.2l0.5,0l0.2,0
	l0.1-0.1l0.3-0.2l0.4-0.1l0-0.2l-0.1-0.3l-0.1-0.2l-0.2-0.2l-0.2-0.1L156,198l-0.3,0l0.1-0.2l0.3-0.2l0.1-0.2v-0.2l-0.2-0.9
	l-0.8-1.7l-0.2-0.1l-0.3,0.2l-0.1,0.2l0,0.2l0,0.1l0,0.2l-0.1,0.2l-1,1.7l-0.1,0.2l0.2,0.2l0.2,0.1l0.2,0.1l-0.2,0.2l-0.2,0.1
	l-0.2,0l-0.2,0l0.1,0.2L153.5,198.2z M90.8,253l-0.2-0.1l-0.4-0.1l-0.2-0.1l-0.1-0.1l-0.1-0.1l-0.1-0.1l-0.2-0.1l-0.8-0.1l-0.2-0.1
	l-0.1-0.2l-0.1-0.2l-0.1-0.1l-0.2,0l-0.4-0.1l-0.2-0.1l-0.1-0.1l-0.2-0.2l-0.2-0.1l-0.1,0l-0.5,0l-0.3,0l-0.2,0.1l-0.3,0.3l-0.7,0.3
	l-0.2,0.2l-0.1,0.1l-1.7,0.1l-0.3,0.1l-0.2,0.3l-0.1,0.4l0.1,0.4l0.3,0.1l0.4,0l0.3,0.1l0.1,0.3l0,0.9l1.2,1l0.1,0.1l0,0.2l0,0.4
	l0.1,0l0.6-0.1h0.7l0.3-0.1l1.1-0.4l0.4-0.1l0.4,0l0.4-0.1l0.2-0.3l0.1-0.8l0.1-0.3l0.1-0.3l0.2-0.2l0.2-0.2l0.3-0.2l0.8,0l0.4-0.1
	l0.2-0.3l-0.1-0.2L90.8,253z M56.1,276.2l-0.1-0.1l-0.1,0l-0.1,0.1l-0.1,0l-0.1-0.1v-0.9l0-0.2l-0.1-0.1l-0.2,0l-0.2,0.1l-0.3,0.2
	l-0.4,0.1l-0.2,0.1l-0.2,0.2l-0.5,0.3l-0.1,0.1l-0.1,0.3l0,0.1l-0.2,0.1l-0.1,0l-0.1-0.1l-0.2,0l-0.3,0.3l-0.1,0.1l-0.1,0l-0.4,0.2
	l-0.5,0.1l-0.1,0.1l-0.2,0.4l-0.6,0.3l-0.1,0L50,278l-0.5,0.3l-0.6,0.2l-0.1,0.1l-0.2,0.1l0.1,0.3l0,0.6l0,0.2l0.2,0.2H49l0.2-0.1
	l0.2-0.1h0.5l0.1-0.1l0.2-0.3l0.1-0.1l0.2,0l0.2,0.1l0.2,0l0.3-0.2l0.1-0.5l0.1-0.1l0.1,0l0.2,0l0.1,0l0.1-0.2l0.1-0.2l0.1-0.1
	l0.3,0l0.2,0.1l0.2,0.1l0.3,0.1l0.2-0.1l0.1-0.2l0-0.5l0.2-0.2l0.1,0.2l0.1,0.2l0.1,0.2l0.1,0.1l0.3,0l0.1,0l0-0.1l0-0.1l0.1-0.1
	l0.1,0l0.1,0.1l0,0.2l-0.1,0.5l0,0.3l0.1,0.2l0.2,0.1l0.2,0.1l0.2-0.2l0.1-0.4l0.1-0.7l0.3-1L56.1,276.2z M114.5,209.1l0.2-0.2
	l0.1-0.2l-0.3-0.1l-0.1-0.1l-0.3-0.5l-0.2-0.2l-0.2-0.1l-0.3,0l-0.2,0.1l-0.1,0.2l0,0.3l-0.1,0.1l-0.1,0.1l-0.5,0.4L112,209
	l-0.4,0.1l-0.3-0.2l-0.4,0.4l-0.1,0.2l0.1,0.2l1.4,1l0.3,0.1l0.3,0l0.3,0l0.3,0.1l0.1,0l0.1-0.1l0-0.1l0.1-0.1l0.1-0.1l0.1,0l0.5,0
	l0.1,0l0.1-0.1l0.2-0.3l0.1-0.1l-0.1-0.1l-0.2-0.1l-0.1,0l-0.2-0.3l-0.1-0.1l0-0.2L114.5,209.1z M133.5,209.6l-0.2-0.3l-0.2-0.1
	l-0.2-0.1l-0.2-0.2l-0.3-0.4l-0.7-0.2l-0.6,0.1l-0.4,0.4l-0.2,0.6l0.2,0.6l0.4,0.4l1,0.5l0.1,0l0.2,0l0.1,0l0.1,0.2l0.1,0l0.2,0
	l0.1-0.1l0.2-0.2l0-0.3l0-0.3l0.1-0.5L133.5,209.6z M128.7,199.9l0.2,0.1l0.4,0.1l0.4,0l0.2-0.1l0-0.2l0.4-0.9l-0.9-0.7l-0.3-0.4
	l0.3-0.2l0.3-0.1l0-0.3l-0.2-0.3l-0.3-0.2l0.1-0.3l0-0.2V196l0-0.3l0.2,0.3l0.1-0.2l0-0.3l0.1-0.4l-0.2-0.2l-0.5-0.3l-0.3-0.2
	l-0.2-0.1l-0.5,0l-0.2-0.1l-0.8-0.7l-0.2,0.1l-0.2-0.2l-0.1-0.3l-0.1-0.2l-0.2,0.1l-0.3,0.4l-0.2,0.2l-0.1-0.7l-0.3-0.2l-1.2,0.2
	h-0.7l-0.7,0.1l-0.3,0.1l-0.1,0.1l-0.3,0.4l-0.1,0.1l-0.2,0.1l-0.1,0.1l0,0.2l0,0.2l0,0.1l-0.5,0.1l-0.2,0.2l-0.1,0.3l0,0.4
	l-0.3,0.6l-0.7,0.3l-0.8,0.2l-0.6,0.2l-0.1,0.1l-0.1,0.2l-0.1,0.1l-0.2,0.1l-0.2-0.1l-0.1,0l-0.1,0.2l-0.1,0.3l-0.6,0.5l-0.2,0.3
	l-0.3,0.7l-0.1,0.4l0,0.4l0.1,0.3l0.3,0.1l0.3,0l0.3,0.1l0.2,0.2l0,0.3l-0.1,0.3l-0.1,0.4l0.1,0.3l0.4,0.2l0.8,0.3l2.2,0.4l2.7-0.2
	l0.7,0l0.6,0l0.8-0.2l0.7-0.3l0.5-0.4l0.1-0.2l0.1-0.2l0-0.2l0-0.2l0.1-0.2l0.2-0.1l0.2-0.1l0.2-0.1l0.5-0.5l0.1-0.1l0.2,0l0.1,0.1
	l0,0.2L128.7,199.9z M98.3,184.5l0-0.9l-0.5-0.7l-0.2-0.1l-0.5-0.4l-0.2,0.2l-0.2,0.2l-0.2,0.2l-0.2,0.7l-0.2,0.1l-0.3,0.1l-0.3,0.1
	l-0.2,0.2l-0.3,0.5l-0.2,0.3l-0.1,0.3l0,0.4l0.1,0.3l0.3,0.1l-0.1,0.1l-0.3,0.1l-0.1,0.1l0,0.2l-0.1,0.1l-0.2,0l-0.2,0l-0.2,0.1
	l0.1,0.2l0.2,0.2l0.1,0l0.1,0l0.2,0l0.1,0.1l0,0.1l0,0.2l0,0.1l0.1,0.4l0.1,0.2l0.1,0.1l0.2-0.1l0.3-0.2l0.1-0.1l0.1-0.1l0.3-0.2
	l0.2,0l-0.2,0.5l0.7-0.2l0.5-0.5l0.4-0.6l0.6-1.4L98.3,184.5z M53.1,164.7l-0.1-0.1l-0.1-0.1l-0.1-0.1l-0.2-0.1v0.1l-0.2-0.1l-0.1,0
	v-0.1l0.2-0.2l-0.1-0.2l0-0.2l0.4-0.1l0.1,0l-0.2-0.1l-0.3-0.1l-0.5-0.4l-0.1,0l-0.2-0.1l-0.1-0.1l0.4-0.1l0.1-0.1l0-0.1l-0.2,0
	l-0.8,0l-0.3-0.1l0.1-0.2l-0.6-0.4l-0.2-0.4l-0.3,0.1l-0.2,0.2l0,0.1l0.1,0l0,0.1l0,0.1l-0.1,0l-0.1,0l-0.1,0l-0.1,0l0,0l-0.1,0
	l-0.1,0l-0.1-0.1l-0.1,0l0.2,0.8l0.1,0.2l0.2,0.2l0.4,0.4l0.2,0.3l-0.1,0l-0.1,0.1l-0.1,0.1l0.2,0.1l0.2,0.5l0.1,0.2l0.2,0.1l0.3,0
	l0.2-0.2l0.1-0.4l0.1,0.1l0.1,0l0.1-0.1l0.1,0.2l-0.1,0.2l-0.2,0.2l-0.2,0.2l0.1,0.1l0,0.1l0,0.2h-0.1l-0.1-0.1l-0.1-0.1l-0.2-0.2
	l-0.1,0.4l0.1,0.5l0.2,0.3l0.3-0.3l0.5,0l0.6-0.5l0.3-0.6l-0.2-0.3l0.1-0.1L53.1,164.7z M49.4,157.9l-0.2,0.2l0,0.1l0.2,0.1l0.1-0.3
	l0.1-0.2l0.2-0.2l0.2-0.2l0.2,0.2l0.1,0.2l0,0.2l0.1,0.2l0.2,0.2l0.1,0.2l0,0.2v0.3l0.1,0.4l0.5,0.6l0.2,0.5l0.3,0.3l0.3,0.2
	l0.3,0.1l0.7-0.1l0.2,0.1l0.2,0.5h0.1l0.1-0.1l0.1-0.1h0.1l0.1,0.1l0-0.2l0.1-0.2l0-0.2l-0.1-0.2l0.1-0.1l0.3,0.1l0.3,0l0.2,0.1
	l0,0.3l0.2-0.1l0.2,0.1l0.2,0.2l0.2,0.1l0.2-0.1l0.2-0.1l0.2-0.1l0.3,0l0.2,0.1l0.1,0.1l0.1,0l0.2-0.1l0.2-0.1l0.2-0.1l0.1-0.2
	l-0.1-0.2l-0.1,0.1l0-0.1v0l0,0l-0.1,0l-0.1,0.2l-0.1,0l-0.1-0.1l0.1-0.2l0.2-0.2l0.2-0.1l0.1-0.1l0-0.2l-0.1-0.2l-0.2-0.3l-0.5-0.5
	l0,0.1l0,0l0,0l-0.1,0l-0.1-0.3l-0.2,0l-0.2,0.1l-0.1-0.2l0-0.5l0-0.3l-0.1-0.3l-0.2-0.3l-0.1,0l0,1.6l-0.2-0.1l-0.2,0l-0.1,0.1
	l0,0.2l-0.4-0.2l-0.9-0.7l-0.4,0l0-0.2l0.1-0.1l0.1-0.1l0.2,0l-0.1-0.1l-0.3,0l-0.1,0l-0.1-0.1l-0.4-0.4l-0.5-0.4l-0.3-0.2l-0.3-0.1
	l-0.7-0.1l-0.2-0.1l0-0.1l0-0.3l-0.1-0.3l-0.3-0.1l-0.4,0l-0.1,0.3l0.1,0.7l0.1-0.1l0.2,0l0.4,0l-0.3,0.2l-0.3,0.1l-0.2,0.1
	l-0.1,0.3l0,0.3l0,0.2l0,0.2L49.4,157.9z M51.5,186.4l0.1-0.1l0-0.2v-0.1l0.3-0.2l-0.2-0.3l-0.4-0.3l-0.4-0.1l-0.5-0.2l-0.5-0.2
	l-0.5-0.3l-0.2,0l-0.1,0l-0.1,0.1l-0.1,0.2l-0.4,0.7l-0.2,0.2l-0.7,0.5l0,0.1l0.1,0.1l0.2,0.1l0.2-0.1l0,0.7l0.1,0.4l0.1,0.3
	l0.3,0.2l0.3,0l0.2-0.1l0.3-0.1l0.3,0l0.2-0.1l0.1-0.1l0.1-0.2l0.2,0l0.2,0l0.1,0l0.1-0.3l0-0.3l-0.1-0.3l-0.1-0.3l0.2,0.1l0.4,0.6
	l0-0.1l0-0.1l0-0.1l0-0.1l0.3,0.1L51.5,186.4z M2.1,229.2l0-0.1l0.1-0.3l-0.2-0.2H1.8L1,228.6l-0.1,0.1L0.8,229l-0.1,0.2l-0.2,0
	l-0.1-0.1l0-0.2l0-0.2l-0.2-0.1L0,231l0,0.1l0.3,0.9l0.4,0.5l0.1,0.3L0.7,233l0.2,0.1l0.3,0l0.1-0.1l-0.2-0.3l0.3,0l0.3-0.2l0.2-0.2
	l0.1-0.2l0,0l0.1-0.1l0,0l0.1,0l0-0.1l-0.1-0.1l0,0l0-0.3l0-0.1l0.1-0.1l0-0.1l0-0.3L2,230.1l0-0.3l0.1-0.1l0.2-0.1l0.1-0.1
	L2.1,229.2L2.1,229.2z M75.7,263.8l-0.4-0.1l-0.7,0l-0.4,0l-0.8-0.3l-0.3,0.2l-0.3,0.2l-0.3,0.1l-0.3-0.2l-0.4-0.9l-0.3-0.2l-0.2,0
	l-0.4-0.2l-0.2-0.1l-0.3,0l-0.3,0l-0.6,0l-0.2,0l-0.1,0.1l-0.4,0.5l-0.1,0.1l-0.4,0l-0.5,0.3l-0.6,0.3l-0.3,0.3l-0.2,0.3l-0.1,0.3
	l0.1,0.3l0.3,0.4l0.1,0.1l0.2,0.1l0.1,0.1l0,0.1l0,0.1l0,0.1l0.1,0.1l0.2,0.1l0.2,0l0.3-0.2l0.6-0.4l0.1-0.1l0.7,0.1l0.1,0.1
	l0.2,0.3l0.1,0.1l0.1,0l0.1-0.1l0.3-0.2l1.4-0.6l0.7,0l0.4,0.4l0,0.2l0,0.2l0,0.2l0.1,0.2l0.2,0.1l0.2,0.1l0.2,0l0.2-0.1l0.5-0.5
	l0.2-0.1l0.1-0.1l0.6-0.1l0.1,0l0-0.3l0.1-0.2l0.1,0l0.2,0l0.2-0.1l0.2-0.4L76,264L75.7,263.8z M50.8,85.6l-0.3,0.3L50.5,86l0.1,0.1
	l0.2,0.1l0.3,0.5l0.3,0.3l0.1,0.1l0.2,0.2l0.2,0l0.1-0.2l0-0.2l-0.1-0.2l0-0.8l-0.1-0.3l0-0.1l-0.1-0.1l-0.1-0.1l-0.2,0l-0.1,0.1
	l0,0.1l0,0.1l-0.1,0L50.8,85.6z M80.6,127.6l0.1-0.2l0.3-0.2l0.1-0.2l0.3,0.1l0.6,0.2l0.1,0l0.3,0.3l0.2,0.3l0.2,0.3l0.5,0.1
	l0.2,0.1l0.2,0.1l0.3,0.3l0.2,0.1l0.2,0l0.2,0.1l0.2,0.1l0.6,0.6l0.1,0l0.3,0l0.2,0.1l0.3,0.2l0.3,0.1l0.1-0.3l0.6,0.4l0.4,0.5
	l0.9,1.5l0.1,0.2l0.1,0.2l0.1,0.3l0.1,0.1l0.2,0.1l0.6,0l0.3,0.1l0,0.2l1,0l0.3,0.3l0.1,0.2l0.5,0.2l0.1,0.2l0.3,0.3l0.1,0.1l0,0.2
	l0,0.1l1.7,2.2l0.3,1l0,0.3l-0.2,0.6l0,0.4l1.1,0.9l0.3,0.2l0.3-0.1l0.4-0.2l0.4-0.2l0.2-0.2l0.1-0.1l0.2-0.1l0.2-0.1l0.1-0.1l0-0.1
	l0-0.2l0-0.4l-0.1-0.1l-0.1-0.1l-0.1-0.1l0-0.2v-0.7l-0.1-0.6l-0.2-0.7l-0.1-0.3l-0.2-0.3l-0.7-0.9l-0.4-0.7l-0.1-0.3l0.7,0.6
	l0.4,0.2l0.1-0.3l-0.2-0.3l-1.2-0.7l-0.6-0.6l-0.3-0.4l-0.1-0.4l-0.1-0.8l0.1-0.3l0.4,0.1l-0.1-0.6l0-0.4l0.1-0.3l0-0.2l-0.2-0.3
	l-0.8-1.2l-0.1-0.1l-0.2-0.1l-0.2-0.2l-0.1-0.3l0.1-0.2l0.3,0.3l0.4,0.1l1,0.1l0.4-0.5l0.1,0l0,0.1l0.2,0.3l0.1,0.2l0.2-0.1l0.1,0.1
	l0,0.2l0.1,0.1l0.2,0l0.2,0.1l0.2,0.1l0.5,0.5l0.1,0.1l-0.1,0.1l-0.1,0.1l0,0.1l0.2,0.2l0.2,0.1l0.2,0l0.2-0.2l0.2,0.1l0.7,0.1
	l0.2,0.1l0.2,0.2l0.1,0.1l-0.2,0l-0.1,0.1l0.1,0.1v-0.1l0.5,0.3l0.4,0.4l0.8,0.9l-0.8,0.7l0.2,0.2l0.5,0.6l0.2,0.1l0.2,0.1l1.1,0.8
	l0.4,0.4l0.2,0.1l0.3,0l0.4,0.2l0.3,0l0.5,0.1l0.9,0.6l0.5,0.1l0.4,0.2l0.3,0.5l0.2,0.6l-0.1,0.5l0.5,0.5l0.1,0.2l0.1,0.3l0.1,0.2
	l0.3,0.3l0.6,0.4l0.3,0.3l0.1,0.6l-0.4,1.4l0.3,0.6l-0.2,0.2l0.1,0.3l0.1,0.3l0.1,0.3l0.2,0.1l0.3-0.1l0.5-0.3l0.4-0.1l0.3,0
	l0.3,0.1l0.4,0l0.1,0.1l0.3,0.6l0.3,0.2l0.3,0.4l0.2,0.1l0.1,0.1l0.1,0l0.2,0.1l0.3,0.2l0.2,0.2l0.5,0.5l0.1,0.1l0.2,0.1l0.3,0.1
	l0.2,0l0,0l0-0.1l0.1-0.2l0.1-0.1l0-0.2l0.1-0.1l0.2-0.1l0.2,0l0.1-0.1l0.1,0.1l-0.3,0.4l-0.2,0.4l0.4,0.3l0-0.2l0-0.1l-0.1-0.1
	l0.1,0l0.4,0l0.2,0l0,0.1l-0.1,0.1l-0.2,0.1l0.1,0.2l0.1,0.2l0.1,0l0.1-0.1l0.1,0l0.1-0.1l0.2-0.3l0.1-0.1l0.1,0l0.2,0.2l0.1,0
	l0.1,0l0.2-0.1l0.4-0.1l0.3-0.2l0.4-0.4l0.1-0.2l0.1-0.4l0.1-0.3l0.2-0.1l0.3,0.1l0.5,0.2l0.3,0.1l0.8-0.1l0.4,0.1l0.1,0.4l-0.1,0.3
	l-0.2,0.3l-0.3,0.2l-0.3,0.1l-0.1,0l-0.2-0.1l-0.2,0l-0.2,0.1l-0.1,0.2l0,0.2l-0.1,0.1l-0.2,0.1l-0.2,0l-0.1,0l-0.1,0l-0.2-0.1
	l-0.1-0.1l-0.3-0.3l-0.2-0.1l-0.2,0.3l-0.2,0.2l-0.3,0.1l-0.4,0l0.3,0.2l0.3,0.1l0.2,0.2l0.1,0.4l0,0.4l-0.1,0.3l0,0.3l0.3,0.6
	l0.1,0.3l0.1,0.3l0.4,0.2l0.3,0.3l0.1,0l0.1,0l0.1,0l0,0.2l0.5,0.7l0.4,0.4l0.5,0.2l0.5,0l0.2,0l0.2-0.1l0.3-0.2l0.2-0.1l-0.1-0.4
	l-0.1-0.1l0.2-0.2l0-0.1l-0.1-0.2l-0.1-0.3l0.1-0.3l0.5-0.3l0.1-0.3l0.2-2.1V147l-0.2-1.1l-0.2-0.4l-0.1-0.3l0-0.2l0.3-0.6l0.2-0.5
	l0.1-0.2l0.2-0.3l0.2,0.1l0.1-0.2l0-0.3l-0.1-0.3l-0.2-0.1l-0.4-0.2l-0.4-0.1l-0.2,0.1l-0.1,0.2l-0.4,0.7l-0.2,0.2l-0.2-0.1
	l-0.8-0.7l-0.1-0.2l-0.2-0.2l-0.3-0.2l-0.2-0.1l-0.6-0.2l-0.1,0l0-0.2l-0.1-0.1l-0.1,0l-0.2,0l-0.2-0.1l-0.2-0.3l-0.2,0l-0.2,0.1
	l-0.1,0.1l-0.1,0.1l-0.1,0.2l-0.6,0.8l-0.1,0l-0.3,0.2l-0.2,0.1l-0.2,0l-0.1,0l-0.4-0.2l0.1-0.1l0-0.1l-0.1-0.1v-0.1l0.4-0.1l0-0.2
	l-0.3-0.5l-0.1-0.3l0-0.2l0.1-0.2l0-0.3l0.1-0.5l0.4-0.1l1.1,0.1l-0.1-0.2l-0.2-0.2l-0.2-0.1l-0.1,0.3l-0.3-0.8l-0.2-0.4l-0.3-0.2
	l-0.3-0.1l-0.3-0.3l-0.2-0.4l-0.1-0.5l0-0.1l0-0.2l-0.1-0.1l-0.2-0.1l-0.1-0.1l-0.4-0.7l-0.2-0.3l-1-0.5l-0.1-0.1l-0.6-0.8l-0.1,0.1
	L112,134l-0.1-0.1l0-0.2l0-0.2l0-0.1l0-0.1l0-0.1l-0.1-0.1l-0.1,0l0-0.4l0.5-1.4l0.2-0.2l0.3-0.1l0.3,0.1l0.4,0.2l0.4,0.1l0.2-0.1
	l0.2-0.1l0.4,0l0.9,0.1l0.6,0.3l0.3,0.1l0.4-0.1l0.3-0.3l0.2-0.3l0.2-0.1l0.6,0l0.3,0.1l0.2,0.1l0.1-0.2l0-0.1h0.1l0.1,0.1l0.1,0.1
	l0.3,0.2l0.1-0.3l-0.1-0.2l-0.3-0.3l-0.2-0.5l-0.1-0.1l-0.2-0.1l-0.4,0l-0.2-0.1l-0.1,0l0-0.1l0-0.1l-1.2-0.5l-0.7-0.5l-0.5-0.6
	l-0.4-0.6l-0.5,0.9l-1.2-0.2l-1.3-0.5l-0.8,0.1l-0.1-0.3l-0.1-0.2l-0.2-0.1l-0.3-0.1l0,0.4l-0.1,0.2l-0.1,0.2L110,128h-0.1v-0.2
	l0-0.2l-0.1-0.2l-0.1-0.2l0.1-0.3l-0.3-0.5l0.1-0.3l-0.1-0.1l-0.1,0l-0.2,0.1l0.2-0.4l0.1-0.1l-0.2,0l-0.1,0.1l-0.3,0.3l-0.1-0.1
	l-0.1-0.2l0.1-0.2l0.3-0.1l-0.2-0.6l-0.1-0.3l-0.2-0.1l-0.1,0.1l0.1,0.3l0,0.1l-0.1,0l-0.5,0l0.2,0.2l0.1,0.1v0.1l-0.5-0.3l-0.4-0.1
	l-0.2,0.1l0.2,0.5l0,0.2l-0.3,0.1l0.3,0.2l-0.2,0.1l-0.3,0.1l-0.2,0.1l0.1,0.3l0.2,0.2l0.8,0.5l0.2,0l0.2,0l0.1-0.1l0.2-0.5l0.2-0.2
	l0,0.2l-0.1,0.3l-0.1,0.2l-0.1,0.1l-0.1,0.1l-0.6,0.4l0,0.3l0.3,0.4l0.2,0.6l0.1,0.2l0,0.1l-0.1,0.1l0,0.1l-0.1,0.2l-0.6,0.7
	l-0.2,0.1l-0.5,0.2l-0.2,0l-0.9-0.1l-0.4,0l-0.4,0.2h-0.1l-0.3-0.3l-0.4-0.3l-0.3-0.3l-0.1-0.6l0.2-0.9l0.1-0.2l0.1-0.1l0.1,0l0.1,0
	l0.1-0.2l0-0.1l-0.1-0.5l0-0.8l0-0.3l-0.1,0l-0.4-0.3l-0.3-0.4l0-0.4l0.1-0.2l0.1-0.2l0.1-0.3l-0.1-0.2l-0.2-0.2l-0.2-0.1l-0.2,0.1
	l-0.2-0.2l-0.6-0.7l-0.2-0.1l-0.4-0.6l-0.1-0.1l-0.1,0l-0.2,0l-0.1,0l0-0.1l0-0.1l0-0.1l-0.5-0.6l-0.3-0.2l-0.5-0.1l-0.3,0l-0.1,0
	l-0.3-0.3l0-0.1l0-0.1l0,0l-0.3,0l-0.1,0l-0.1-0.1l-0.1-0.1l-0.3,0.3l-0.2,0l-0.2-0.2l-0.1-0.3l-0.1,0.1l-0.3-0.2l-0.1,0.2l0.1,0.4
	l0.3,0.4l-0.2-0.1l-0.5,0l-0.1,0.2l-0.2,0l-0.2-0.2l-0.1-0.3l-0.1,0.2l-0.2,0l-0.1-0.2l0-0.2l-0.4-0.1l-0.8-0.3l-0.4,0l0.2,0.3
	l0.1,0.1l-0.4-0.3l-0.2-0.1l-0.2,0l-0.2,0.2l-0.2,0.2l-0.2,0.1l-0.3-0.1l-0.1,0.3l-0.1,0.2l-0.2,0.1l-0.1-0.2l-0.1,0.2l-0.3,0.6
	l0,0.1l0.2,0.2l0,0.2l-0.2,0.1l-0.3,0l0.1,0.1l0.1,0.1l0,0.1l0,0.2h-0.1l-0.1-0.2l-0.1,0l-0.1,0.1l-0.1,0.2l0,0.1l0.2,0.3l0.1,0.1
	l0,0.4l-0.2,0.3l-0.3,0.2l-0.3,0.1v-0.4l0-0.2l-0.1-0.2l0,0.1l-0.1,0.1l-0.1,0.1l-0.1,0l-0.1-0.1l0-0.1l0-0.1l-0.1-0.2l0-0.2l0-0.2
	l-0.1-0.2l0.1-0.3l0-0.4l-0.1-0.3l-0.2-0.1l-0.1,0.2l0,0.4l-0.1,0.3l-0.2-0.1l-0.6,0.3l-0.2,0.2l0,0.4h-0.1l0-0.2l0-0.1l-0.2-0.1
	l0.1,0.5l0.3,0.5l0.4,0.4l0.5,0.2l0.3,0.2l0.7,0.8l0.4,0.1v0.1l-0.2,0l-0.1,0.1l0.1,0.3l0,0.2l-0.1,0l-1.5-0.4l-0.3,0.1l0.7,0.6
	l0.2,0.3l0,0.5l-2.5-0.5l-2.6-1l-0.3-0.3l-1.2-1.2l-1.2-0.8l-0.6-0.9l-0.2-0.2V123l0.2-0.1l0.1-0.2l0.1-0.3l0-0.3l-0.1-0.2l-0.3-0.3
	l-0.1-0.1l0.1-0.6l0-0.2l-0.2-0.3l-0.7-0.7l-0.2-0.3l-0.1-0.3l-0.2-0.7l-0.1-0.6l-0.6-2.1l0-0.3v-0.8l0.1-0.3l0.3-0.2l0.3-0.1
	l0.4-0.1l0.6,0l0.3-0.1l0-0.2l-0.2-0.2l-1.1-0.8l-0.1-0.2l-0.1-0.2l-0.7-0.8l0.1-0.1l0.2-0.1l0.1-0.1l-0.3-0.4l-0.3-0.4l-0.2-0.5
	l-0.1-0.5l-0.1-0.3l-0.5-0.9l-0.2-0.2l-0.1-0.2l-0.3-1.8l-0.1-0.3l-0.2-0.2l-0.4-0.2l-0.5-0.4l-0.4-0.6l-0.2-0.7l0-0.8l0.1-0.4
	l0.1-0.1l0.2,0.1l0.3,0.1l0.6-0.8l0.2-0.3l0.1-0.3l0.1-1.1l0.1-0.2l0.9-0.8l0.2-0.3l0.1-0.3l0.1-0.3l0.3-0.2l0.7-0.4l-0.2-0.1
	l-0.1-0.1l-0.3-0.1l0.7-0.8l0.1-0.3l-0.2-0.4l-0.4-0.1l-0.4,0l-0.2-0.2L78.5,95l-0.3-0.6l0-0.4l0.1-0.7l0.1-0.4l0.2-0.3l0.3-0.2
	l0.8-0.4l0.6-0.7l0.1-0.2l1.2-1l0.1-0.1l0.1,0.1l0.1,0l0.2-0.1l0.2-0.1l0.5-0.1l0.2-0.2l0.2-0.2l0.2-0.2l0.6-0.2l0.6-0.1l0.3-0.1
	l1-0.5l0.7-0.2l0.3-0.2l0.1-0.3l0-0.3l0.1-0.3l0.2-0.2l0.3-0.2l0.5,0.1l0.1,0.3l-0.1,0.3l-0.5,0.3l-0.2,0.4l-0.1,0.4l-0.1,0.3
	l-0.8,0.6l-0.1,0.2l-0.1,0.3L86,90.2l-0.3,0.5l0.1,0.1l0.3-0.4l0.7-0.5l0.2-0.4v-0.1l0-0.1l0-0.1l0-0.1l0.1-0.1l0.1,0l0.1,0l0.5-0.6
	l0.6-0.5l0.5-0.6l0.1,0l0.3,0l0.1,0l0-0.1l0-0.3l0-0.1l0.4-0.7l0.1-0.3L89.4,86l-0.3,0.3l-0.1-0.5l0.6-1.1l0.1-0.6h-0.1l0,0.1
	l-0.1,0.2l-0.2-0.5l0-0.2l0.1-0.3l0.3-0.2l0-0.1l0-0.4l0-0.2l0.1-0.2l0.2-0.3l0.6-0.5l0.2-0.3l0.4-0.9l0.2-0.3l0.1-0.2l0.3-0.8
	l0.1-0.5l0.8-1.4l0.5-1.2l0.3-0.5l-0.1-0.3l0.2-1.4l0.2-0.4l0.1-0.1l0.1-0.1l0.1-0.2l0.1-0.2l0.1-0.2l0.2-0.3l0.1-0.3v-0.3l-0.2-0.3
	l-0.3-0.2l-0.2,0.1L94,71.6l-0.3-0.1l-0.1,0.1l-0.1,0.1l-0.1,0.1l-0.2-0.2l-0.4-0.3l-0.1-0.3l0-0.2l0.2-0.5l0-0.3l0-0.2l-0.2-0.5
	l0-0.3l0.1-0.1l0.2,0.1l0.3,0.2l-0.1-0.5l-0.4-0.5l-0.3-0.2l0.1,0.4l-0.2-0.2l-0.1-0.5L92,67.5l-0.2,0l-0.4,0.2l-0.2,0L91,67.7
	l-0.3-0.3l-0.1,0l-0.1,0l-0.1,0.1l-0.1,0l-0.2-0.1L90,67.1l0-0.3l-0.1-0.2l0-0.4l-0.3-0.4l-0.3-0.4L89.1,65l-0.1-0.4l-0.5-1.3
	l-0.1-0.5l0-1.6l-0.1-0.2l-0.2-0.3l-0.1-0.1l0-0.1l0.1-0.2l0-0.1l-0.1-0.4l0-0.2l0.7-3.3l0-0.2l-0.1-0.6v-0.6l0-0.2l-0.1-0.1l0-0.2
	l0-0.2l0.1-0.2l0.1-0.1l0.6-0.5L90,53l0.3-0.3l0.4-0.6l0.3-0.6l0.2-0.7l0.1-0.8l-0.1-0.7l-0.3-0.5l-0.2-0.1l-0.5-0.4l-0.1-0.2
	L90,47.8l-0.1-0.7l-0.1-0.3l-0.3-0.1l-0.4,0l-0.8,0.1L88.3,47l-0.4,1.3l-0.1,0.6L87.7,49l-0.3,0.1l-0.2,0.2l-0.7,1.1l-0.9,0.5
	l-0.2,0.1l-1,0.1l-0.4,0l-0.7-0.2l-3.1-1.2L80,49.5l-0.3-0.1l-0.2,0.3v0.4l0.3,0.3v0.1l-0.3-0.3l-0.3-0.5l-0.4-0.5l-0.8-0.3L78,48.8
	l-0.1-0.2l-0.1-0.1l-0.1,0l-0.2,0l-0.1,0L76,47.5l-0.5-0.2l-0.2-0.2L75,47l-1.7-0.9l-0.4-0.4L72,45.3l-0.1-0.1L71.8,45l-0.1-0.1
	l-0.2-0.1l-0.4,0l-0.2-0.1l-0.1-0.1l-0.2-0.1l-0.2,0.1l-0.2,0.2L70,45l-0.2,0l-0.4,0l-0.2,0L69.1,45l-0.7,0.3l-0.1,0.1l-0.1,0.2
	l-0.3,0.2l-0.3,0.1l-0.3,0l-0.3-0.2L66.5,45l-0.3-0.3L66,44.5l-0.4,0l-0.3,0.2L65,45L65,45.3l0,0.4L64.9,46l-0.3,0.2l-0.3,0.1
	l-0.8,0.3l-0.4,0l-0.7-0.2l-0.3,0.1l-0.4,0.3l-0.3,0.4l-0.2,0.3l0,0.3l0.2,0.5l0.2,0.7l0,0.7l-0.1,0.7l-0.2,0.6l-0.5,0.9L60.8,52
	l0,0.1l-0.1,0l-0.1,0l0,0l0,0.1l0,0.1l0.1,0.1l0,0l-1,2l-0.1,0.2l0.1,0.2l0.1,0.4l0,0.4l0,0.3l-0.1,0.2l-0.4,0.8l-0.4,0.6l0,0.3
	l0.1,0.7l0,0.4L59,59.2l-0.4,0.5l-0.1,0.3l0.1,0.2l0.2,0.2l0.1,0.3l0,0.2l-0.1,0.3l-0.2,0.3l-0.3,0.1L58,61.6l-0.2,0.2l-0.3,2.2
	l0.1,0.3l0.3,0.2l0.8,0.2l0,0.4l0.6,1.3l0.1,0.6l0,0.2l0,0.2l-0.1,0.2l-0.1,0.2l-0.3,0.3L58.7,68l0.1,1l-0.2,0.8l0,0.3l0,0.1
	l0.2,0.2l0,0.1l0.3,3l0,0.5L59,74.4l-1.3,2l-0.2,0.1l-0.1,0.1l-0.1,0.1l-0.1,0.2l-0.1,0.2l0,0.2l0,0.4l0.1,0.4l0.1,0.4l0,0.4
	L57,79.4l-0.1,0.4l0,0.4l0.1,0.2v0.1l-0.2,0l-0.1,0l-0.1,0v-0.1l-0.2,0.2l0.1,0.3l0.2,0.4l0.2,0.4l-0.1,0.9l0.2,0.7l0.4,2.9l0.1,0.1
	l0.1,0.1l0.1,0.1v-0.4l0.5,0.7l0.2,0.4l0.1,0.4v0.7l-0.1,0.2L58.2,89l-0.1,0.2L58,89.5L57.4,90l-0.1,0.2l0.1,0l0.2-0.1l0.2-0.1
	l0.1,0.1L58,90.4l-0.2,0l-0.2,0l-0.1-0.1l-0.2,0.2l-0.2,0.4l-0.2,0.2l0.1-0.5l-0.2-0.2l-0.6,0.1L56,90.5l-0.3,0.2l-0.4,0.1l-0.4,0
	l-0.8-0.2l-0.3-0.2l-0.2-0.2l-0.1-0.4l-0.2-1.1l-0.1-0.1l-0.1,0l-0.3-0.3l-0.2-0.1l-0.2,0l-0.4,0l-0.2-0.1l-0.5-0.5l-0.1-0.1
	l-0.2-0.1l-0.8-0.2L50.1,87l0.4-1.7V85l-0.2-0.3l-0.4-0.1l-0.4,0l-0.3,0.1l-0.1,0l-0.3,0.2l-0.1,0l-0.2,0l-0.1,0l-0.2,0.2l-0.2,0.3
	l-0.2,0.3L48,86.4l-0.3,1.1l0,0.2l0,0.5l0.1,0.2l0.2,0.3L48,89L48,89.3L47.7,90l0,0.3l0,2l0.3,0.5l0.2-0.2l0.1-0.1l0.3,0l0.2-0.3
	l0.3-0.2l0.4,0.1l0.2,0.2l0.2,0.4l0.3,0.7l0.1,0.4l0,0.3l-0.1,0.3l-0.1,0.3l0.1,0.7l-0.1,0.3l-0.4,0.1l0.2,0.4l0.4,0.2l0.3,0.3
	l0,0.5l-0.1,0.2L50.2,98l0,0.2l0,0.2l0.3,0.7l0.1-0.2l0-0.1l0.1,0.1l0.1,0.2l0,0.2l0,0.1l0.1,0l0.1,0.1l0.1,0.1l0,0.1l-0.1,0.4
	l-0.3,0.3l-0.3,0.1l-0.3-0.2l0.1,0.3l0,0.1l0,0.2l-0.1,0.1l-0.2,0.2l0,0.1l0.1,0.3l1,1l0.2,0.3l0.3,0.6l0.3,0.5l0.1,0.1l0,0.4
	l-0.1,0.3l0,0.2l0.1,0.1l0.2,0.2l0.6,2.5l0.1,0.7l-0.1,1.6l0.1,0.7l0.4,1.3l0.3-0.1l0.1,0l-0.1,0.1l-0.1,0.1l-0.1,0.1l-0.1,0.1
	l0.2,0.2l0.4,0.2l0.1,0.2L54,113l0.3,0.1l0.3,0.1l0.2,0l0.2-0.3l0.2-0.6l0.1-0.6l-0.1-0.4l0.2-0.2l0.2,0.1l0.2,0.2l0.2,0.1l0.2,0
	l0.1,0l0.1,0.1l0,0.2l0.1,0.1l0.1,0l0.3,0l-0.1,0.2l-0.1,0.1l-0.1,0.1l-0.1,0l-0.1,0.2l-0.2,0.1l-0.1,0.2l-0.1,0.2l0.4,0.2l0.1,0.1
	l-0.2,0.1l-0.3,0.2l0.2,0.5l0.5,0.8h0.1l0.1,0.2l0.1,0.1l0.2,0l0.2-0.1l0.7,0.5l0.2,0.3l0.1,0.6l-0.1,1l0.1,0.5l0.3,0.4l0.1,0.1
	l0.8,0.2l0.1,0.1l0,0.1l0.1,0.1L60,119l0.1-0.1l0-0.1l0.1-0.1l0.2,0l0.1,0l0.1,0.1l0.2,0l0.7-0.1l0.4-0.5l0.2-0.7l-0.1-0.8l-0.3-1.2
	l0-0.3l0.1-0.2l-0.1-0.2l-0.7-0.8l0-0.4l0.2-1.1l0-0.9l0.1-0.2l0.3,0.2l0.1-0.8l0.1-0.3l0.3,0l0.1,0.3l-0.2,1.2L62,112l0.1,0
	l0.1,0.1l0.2-0.2l0-0.1l0-0.1l0-0.6l0.1,0.2l0,0.3l0,0.6l0.1,0.2l0.2,0.1l0.2,0.1l0.2,0.1l1.1,0.2l1.7,0.1l0.2,0l0,0.1l0,0.1
	l0.1,0.1l0.8,0.3l0.1,0.1l0.1,0.2l0.5,0.7l0.1,0.2l0.1,0.7l0.1,0.4l0.4,0.6l0.1,0.4l-0.1,0.3l-0.2,0.2l-0.5,0.3l-0.3,0.3l-0.1,0
	l-0.4,0l-0.2,0l-0.1,0.1l-1.5,1.5l-0.4,0.6l-0.1,0.1l-0.4,0.2l-0.1,0.1l-0.1,0.2l-0.2,0.2l-0.3,0.2l-0.2,0.1l-0.7,0.1l-0.3,0.1
	l-0.1,0.3l-0.1,0.3l-0.3,0.3l-0.1,0.3l0.2,0.2v0.1l-0.2,0.1l-0.1,0l-0.2,0l0.3,0.1l0.1,0.2l0,0.2l-0.3,0.1v0.1l0.5,0.1l0.2,0.4
	l0,0.5l-0.1,1l0,0.3l0.2,0.1l0.1,0.1l-0.1,0.2l-0.2,0.2l-0.3,0l0.3,0.7l0,1.5l0.1,0.6l0.4,0.5l0.2,0.2l0.1-0.2l-0.1-0.3l-0.1-0.4
	l-0.1-0.3l0.2-0.2l0.7,0.1l0.3-0.1l-0.1-0.4l-0.2-0.3l-0.1-0.3l0.1-0.2l0.3-0.1l0.4,0l0.7,0.2l1.5,0.2L67,128l0.2,0.2l0.1,0.3l0,0.3
	l0,0.3l0,0.2l-0.1,0.4l0,0.2l0.1,0.1l0.3,0.3v0.2l-0.1,0.1l-0.1,0.1l-0.2,0l-0.1,0.1l-0.1,0.2l-0.1,0.2l-0.1,0.1l-0.1,0.1l0,0.2
	l0.1,0.2l0.1,0.1l0.1-0.1l1.3-1.5l0.2-0.1l0.2,0l0.2,0.1l0.3,0.2l0.1,0.1l0.2,0.6l0,0.3l-0.1,0.3l0,0.4l-0.1,0.2l-0.1,0.1l-0.1,0.1
	l0.1,0.2l0.1,0.1l0.4,0.1l0.2,0.1l0.2-0.1l0.3-0.1l0.6-0.1l0.3,0l0.2,0.1l0.1,0.1l0.1,0l0.3,0l0.2,0l0.5,0.2l0.1,0.1l0.2,0.1
	l0.3,0.1l0.3-0.3l1-0.7l0.3-0.2l0.2,0l0.7,0.2l0.1-0.1l0.5-0.5l-0.2-0.1l-0.1,0l-0.2,0l0.1-0.4l-0.1-1.2l0.9-1l0.2-0.1l0.1,0l0.3,0
	l0.1,0l0.1-0.1l0.3-0.2l0.5-0.2l0.2-0.2l0.1,0l0.3,0.1l0.1,0l0.3-0.3l0.1-0.1l0.8-0.2L80.6,127.6z M164.2,242l-0.6-0.3l-0.1-0.1
	l0.2-0.3l0-0.8l0.1-0.4l-0.4-0.3l-0.1-0.1l0.1-0.3l0.1-0.1l0.2-0.1l0.2-0.1l0.2-0.3l0-0.3l-0.1-0.4l-0.1-0.8l-0.3-0.8l-0.1-0.4
	l0-0.8l0.1-0.4l0.1-0.4l-0.4-0.1l-0.9-0.1l-0.4-0.2l-0.4-0.6l-0.1-0.2l-0.1-0.1l-0.5-0.3l-0.3-0.3l-0.3-0.4l-0.1-0.5l0-0.4l0.2-0.4
	l0.7-0.5l0.3-0.3l-0.3-0.4l0-0.7l0.2-0.6l0.4-0.2l-0.2-0.3l0-0.2l0.1-0.3l0.1-1.5l-0.1-0.2l-0.6,0.5l-0.5,0.2l-0.3,0.2l-0.3,0.1
	l-0.3-0.1l-0.1-0.3l0.1-0.3l0.5-0.6l0.2-0.4l-0.1-0.2l-0.3,0l-0.1-0.1l-0.2-0.4l-0.1-0.1l-0.1-0.1l0.1-0.1l0.2-0.1l0.1,0l0.4-0.5
	l0.1-0.3l-0.1-0.3l-0.2,0.1l-0.1-0.1l0.1-0.4l0.1-0.2l0.2,0l0.5,0l-0.1-0.1l-0.1-0.1l-0.1,0l0.1-0.2l-0.1-0.2l-0.3-0.3l-0.1-0.2
	l-0.1-0.1l0,0H160l-0.1,0l-0.1,0.1l0,0l-1.1-0.2l-0.4-0.2l-0.2,0.1l-0.2,0l-0.2-0.1l-0.2,0l-0.1,0.1l0.1,0.1l0.3,0.2l-0.2,0.1h-0.2
	l-0.3-0.1l-0.6,0l-0.1,0l-0.2-0.2l-0.3-0.8l-0.3-0.4l0.1-0.4l0.3-0.4l0.6-0.3l0.4-0.3l0.2-0.1l0.4,0l0.2,0l0.2,0.1l0-0.1v0l0,0
	l0.1,0v-0.1l-0.3-0.2l-0.1-0.1v-0.2l0.1,0l0.6-0.4l0.4-0.1l0.3-0.3l0.2-0.4l0.1-0.4l0,0l0.1-0.1l0-0.1l-0.2-0.1l0-0.2l0.1-0.2
	l-0.2-0.6l0-0.2l-0.2-0.4l-1.2-1.2l-0.1-0.2l-0.2-0.4l-0.1-0.1l-0.2-0.1l-0.2,0l-0.2-0.1l-0.1-0.2l0.1-0.8v-0.6l0.1-0.8l0.1-0.4
	l0.3-0.5l0.1-0.3l-0.1-0.3l-0.3,0l-0.4,0.2l-0.6,0.6l-0.6,0.2l-0.4,0.2l-0.2,0l-0.2,0l-0.1-0.1l-0.8-0.8l-0.3-0.5l-0.1-0.6l0-0.7
	l-0.5,0.2l-0.2,0l-0.3,0l-0.2-0.1l-0.2-0.1l-0.1-0.2l0-0.2l0.1-0.1l0.5-0.1l0.2-0.1l0.1-0.1l0.1-0.1l0-0.2v-0.3h-0.1l0,0.1l-0.2,0.3
	l-0.1-0.2l-0.1-0.2l0-0.1l-0.1-0.1l-0.2,0h-0.2l-0.2,0l-0.6-0.5l-0.3-0.2l-1-0.1l-0.2-0.1l-0.1-0.1l-0.3-0.4l-0.2,0l-0.4,0l-0.2,0
	l-0.1-0.2l-0.1-0.1l-0.2,0l0.1-0.1l0-0.1l0-0.1l0-0.1l-0.4,0.1l-0.5-0.2l-0.4-0.3l-0.2-0.3l-0.1-0.4l-0.2-0.5l-0.1-0.5l0.1-0.4
	l-0.3,0l-0.5-0.2l-0.6-0.2l-0.3-0.2l-0.3-0.3l-0.2-0.2l-0.1,0.2l-0.8,1.4l-0.1,0.3l0,0.3l0,0.3l0.6,2.3l0,0.3l0,0.2l0.4,1l0.1,0.3
	v0.5l0,0.1l0.1,0.1l0.1,0.1l0.1,0.5l0.3,0.5l0.1,0.4l0.2,0.3l0.1,0.2l0,0.1l0,0.3l0,0.2l0.1,0.2l0.1,0.2l0.1,0.2l0,0.3l0,1.8
	l-0.1,0.6l-0.1,0.4l-0.2,0.2l-0.9,0.5l-0.4,0.1l-0.4,0l-0.7-0.2l-1.1-0.1l-0.4-0.1l-0.3-0.3l-0.5-0.7l-0.2-0.4l-0.1-0.2l-0.2,0
	l-0.2,0.1l-0.1,0.1l0,0.1l0,0.2l0,0.2l-0.2,0.3l0,0.2l0,0.2l0.1,0.1l0.1,0.1l0.1,0.1l0.1,0.3l-0.1,1.5l-0.2,0.3l-0.3,0.2l-0.4,0.1
	l-0.4,0.2l-0.2,0l-0.2-0.2l-0.3-0.6l-0.3-0.2l-0.4-0.5l-0.1-0.1l-1.3-0.8l-0.2-0.1l-0.1-0.2l-0.3-0.2l-0.3-0.1l-0.3-0.1l-0.2,0
	l-0.2,0l-0.2,0l-0.2-0.1l-0.2-0.1l-0.2,0.1l-0.2,0.2l-0.1,0.2l-0.2,0.3l0,0.4l0.1,0.8v1.5l-0.1,0.8l0,0.4l0.1,0.3l-0.2,0.3l-0.2,0.2
	l-0.2,0.2l-0.1,0.4l0.1,0.4l0.3,0.6l0,0.3l-0.1,0.2l-0.2,0.3l-0.1,0.1l0,0.2l-0.1,0.5l0,0.1l0.1,0.1l0,0.1l0,0.1l-0.1,0l-0.2,0.1
	l-0.1,0l-0.3,0.2l-0.1,0.1l-0.5-0.1l-0.3,0.1l-0.2,0.3l-0.1,0.4h-0.1v-0.4l0.1-0.4l0.1-0.3l0.2-0.3l-1,0l-0.3-0.1l-0.2-0.1l-0.5-0.6
	l-0.3-0.2l-0.1-0.1l-0.1,0l0,0l-0.4-0.1l-0.1,0l-0.1-0.3l0-0.3l-0.1-0.2l-0.4,0l-0.7,0.3l-0.6,0.5l-0.5,0.6l-0.3,0.6l-0.3,0.7
	l-0.1,0.4l0,0.6l-0.1,0.2l-0.2,0.4l-0.1,0.1l-0.1,0.1l-0.1,0.1l0,0.1l0,0.2l0,0.1l-0.1,0.3l-0.1,0.2l0,0.2l0.1,0.2l0.1,0.2l0.1,0.2
	l-0.1,0.2l-0.2,0.3l-0.3,0.5l-0.2,0.2l-0.6,0.3l-0.7,0.1l-2,0l-0.6,0.1l-0.5,0.2l-0.4,0.3l-0.4,0.5l-0.2,0.2l-0.4,0.1l-0.2,0.1
	l-2.3,1.8l-0.6,0.3l-0.1,0.1l-0.2,0.1l-0.2,0.1l-0.1-0.1l0-0.2l0.1-0.3l0-0.2l0.1-0.5l0.3-0.2l0.7,0l0.4-0.2l1.8-1.6l0.2-0.2l0-0.4
	l-0.3-1l-0.1-2.1l-0.1-0.8l-0.2-0.7l-0.3-0.6l-0.7-0.9l-0.1-0.2l-0.1-0.1l-0.2-0.5h0l-0.1-0.3l-0.1,0l-0.1,0.1h-0.1l-0.1-0.3
	l-0.1-0.2l-0.2-0.1l-1.4-0.3l0.1-0.3l-0.3,0l-0.2,0.1l0.2,0.2l-0.3,0.3l-0.1,0.1l0,0.2l0,0.2l0,0.2l-0.2,0.2l-0.2-0.4l-0.1-0.1
	l-0.1-0.1l-0.3-0.1L112,219l-0.3,0l-0.1-0.4l0-0.9l-0.2,0.1l-0.2,0l-0.2-0.1l-0.3-0.2l-0.4-0.2l-0.1,0l-0.1-0.1l-0.2,0l-0.2,0.1
	l-0.1,0.1l0,0.2l0.1,0.2l0.5,0.6l0.1,0.2l-0.1,0.1l-0.2,0.2l-0.1,0.1l-0.1,0l-0.1,0l-0.1-0.1l-0.1,0l-0.3,0.1l-0.1,0.2l-0.2,0.8
	l-0.1,0.1l-0.3,0.4l-0.2,0.2l-0.3,0.2l-1,0.1l-0.2,0l-0.1-0.1l-0.2-0.2l-0.1-0.1l-0.3,0l-0.6,0.2l-1.3,0.2l-0.2,0.1l-0.2,0.2
	l-0.2,0.3l-0.2,0.3l-0.1,0.2l-0.1,0.3l-0.4,0.5l-0.1,0.3l0,0.2l0.1,0.4l0,0.2l0,0.2l-0.1,0.1l-0.1,0.1l0,0.1l-0.1,0l-0.3,0.2
	l-0.1,0.1v0.1l0.1,0.4l0,0.1l0.6,0.4l0.2,0.3l-0.2,0.4l-1,0.8l-0.4,0.2l-0.2,0.1l-0.2,0l-0.4,0l-0.2,0l-0.2,0.2l-1.6,0.3l-0.4,0
	l-0.4-0.1l-0.3-0.2l-0.1-0.4l-0.1-0.2l-0.2,0.2l-0.3,0.6l-0.2,0.1l-0.7,0.3l-1.3,0.3l-0.3,0.1l-0.1-0.1l-0.1,0l-0.1,0.1l-0.1,0.1
	l-0.3-0.1l-0.4,0.1l-1.3,0.4l-0.6,0.4l-0.5,0.1l-0.5,0.3l-0.2,0.2l-0.2,0.2l-0.4,0.8l-1.5,1.8l-0.4,0.8l-0.1,0.4l0.1,0.2l0.2,0.2
	l0.1,0.4l0,0.7l-0.2,0.6l0,0.3l0.6,0.2l-0.2,0.3l-0.3,0.3l-0.2,0.2l-0.3,0.2l-0.2,0.2L87,238l0,0.4l0,0.2l-0.2,0.3l-0.1,0.2l0,0.2
	l0,0.5l-0.2,0.8l0,0.4l0.2,0.2l0.1,0.1l0,0.1l0,0.2l-0.1,0.1l-0.1,0.1l-0.6,0.3l-1.2,1.1l-0.6,1.3l0,1.4l0.6,1.3l0.4,0.3l1.3,0.7
	l0.8,0.3l0.1,0l0.4,0l0.1-0.1l0.2-0.2l0.3-0.2l0.2-0.4l0.6-1.5l0.7-1l0.1-0.3l0-0.8l0.2-1.4l0.2-0.8l0.3-0.5l0.2-0.1l0.2,0l0.2,0
	l0.2-0.1l0.3-0.5l0.1-0.2l0.1-0.3l-0.2-0.3l-0.2-0.3l-0.1-0.4l0.2-0.3l0.8-0.5l0.2-0.2l0.1-0.2l0.2-0.2l0.2-0.2l0.2,0l0,0.1
	l-0.1,0.6l0.2-0.1l0.2-0.3l0.2-0.3l0.1-0.2l0-0.4l-0.2,0l-0.3,0.1l-0.3-0.1l0-0.2l0.2-0.3l0.7-1l0.4-0.5l1.4-1.1l0.4-0.2l0.2,0
	l0.3-0.2l0.2,0h0.8l0.2,0.1l0.3,0.3l0.1,0.1l0.7-0.1l0.4,0l0.2,0.3l0,0.3l-0.1,0.4l-0.1,0.3l-0.1,0.2l0.1,0.3l0.1,1.1l0.1,0.3
	l0.2,0.2l0.1,0.3l0,0.4l-0.3-0.2l-0.2,0l-0.1,0.2l0,0.4l0,0l-0.1,0.1l0,0.1l0,0.1l0.1,0l0.1,0l0.1,0l0,0l0.1,0l0.1,0.1l0.1,0.1
	l-0.1,0.2l0.2,0.1l0.3,0l0.2,0l0.2-0.1l0.2-0.2l0-0.1l0-0.2l0-0.2l0.1-0.2l0.2-0.2l0.2-0.2l0.2-0.1l0.2,0.2l0.3,0.7l0.1,0.2l0.4,0.1
	l0,0l0.2,0.1l0.1,0.1l0.1,0.1l0.2-0.1l0.1-0.2l0-0.5l0-0.3l0.1-0.2l0.3-0.4l0.1-0.3v-0.1l0-0.1l0-0.1l0-0.1l0-0.1l0.2-0.1l0.1-0.1
	l0-0.2l-0.1-0.2l0-0.2l0.1-0.2l0.5-0.5l0.4-0.6l0.2-0.2l0.2,0.1l0.1,0.3l0,0.5l0.1,0.4l0.2,0.2l0.4,0.1l0.2,0.3l0,0.3l-0.2,0.3
	l-0.3,0.1l-0.3,0L105,237l-0.1,0.4l0.1,0.3l0.2,0.3l0.5,0.5l0.2,0.1l0.3,0l0.2-0.1l0.1-0.2l0.1-0.2l0.3-0.1l0.3,0l0.3,0.1l0.1,0.1
	l0,0.2v0.4l0.1,0.1l0.2,0.2l0.1,0.3l0.5,0.5l0.2,0.2l0.5,0.3l0.5,0.4l0.2,0.1l0.2-0.1l0.2-0.3l0.1-0.4l0-0.4l-0.1-0.4l-0.3-0.3
	l-0.3-0.2l-0.3-0.2l-0.1-0.4l-0.2-0.3l-0.3-0.3l-0.2-0.3l0.2-0.3l0.2,0l0.4,0.2l0.1,0l0-0.4l0-0.2l0.1-0.1l0.2-0.1l0.6-0.1l0.2-0.1
	l0.2-0.1l0.2-0.2l0.1-0.2l0.2-0.8l-0.4-0.5l-0.5-0.5l-0.1-0.6l0.2-0.2l0.4-0.2l0.4-0.2l0.3-0.1l1.1-0.1l0.4,0.1l0.8,0.3l0.4,0
	l0.4,0.1l0.3,0.2l0.9,1.2l0.3,0.2l0.4,0.1l0.8,0l0.4,0.1l0.3,0.1l0.1-0.1l0.8,0.4l0.9,0.7l0.1,0l0.8,0.5l0.5,0.7l0.8,1.7l0.2,0.3
	l0.2,0.1l0.2,0.4l0.2,0.1l0.5-0.1l0.2,0l0.2,0.2l-0.4,0.7l-0.1,0.3l0,0.4l0,0.5l0,0.2l-0.1,0.2l-0.3,0.3l-0.2,0.5l-0.3,0.3l-0.6,0.5
	l-0.6,0.4l-0.4,0.2l-0.3,0.1l-0.4,0.4l-0.7,1.7l-0.2,0.9l0,1.8l0,0.1l-0.1,0.3l0,0.2l0.1,0.1l0.1,0.1l0.1,0.1l0.1,0l0.1,0l0,0.1l0,0
	l0.1-0.1l0.2-0.3l0,0l0.3,0.1l0.1,0.3l-0.1,0.8l0.3,1.1l0,0.4v1.5l0,0.1l-0.1,0.1l-0.2,0l-0.1,0.1l0,0.2l0.1,0.4l0,0.4l0.2,0.9
	l0.3,0.6l0.4,0.6l1.1,1.2l0.2,0.3l0.2,0.6l0.2,0.3l0.5,0.4l0.3,0.2l3,1.3l2.4,1.4l0.3,0.1l0.1,0.1l0.1,0.1l0,0.2l0.1,0.1l0.2,0.1
	l0.5,0.2l0.1-0.1l1.1,0.7l0.4,0.2l0.2,0l0.2,0h0.2l0.7,0.3l0.5,0.1l1.7,0.8l0.4,0.1l0.7-0.2l0.8,0.2l0.3,0l0.3-0.4l1-2.8l0.2-0.2
	l0.1-0.2l0-0.4l0-0.1l0.2-0.1l0.2,0.1l0.2,0.2l0.6,0l0.4,0l0.2,0.1l0,0.2l0.2,0.6l0.1,0.3l0,0.7l-0.2,0.5l-0.7,0.8l-0.3,0.4
	l-0.1,0.3l0,0.3l-0.1,0.3l-0.2,0.3l-0.1,0.3l0.2,0.3l0.1,0.1l0.2,0.1l0.2,0.1l0.1,0.2l0,0.2l0.1,0.2l0.1,0.1l0.1,0.1l0.4,0l0.2,0.1
	l0.2,0.2l0.1,0.3l0.1,0.3l0,1.3l0.1,0.2l0.2,0.1l0.8,0l0.3,0l0.3-0.1l0.3-0.3l0.3-0.3l1.1-1.8l1.6-2.3l1.2-1.5l0.3-0.7l0.1-0.5
	l0.1-0.1l0.1-0.2l-0.1-0.4l0.1-0.2l0.2-0.3l0.1-0.4l0-0.4l-0.1-0.3L148,259l-0.1-0.2l-0.1-0.1l0-0.2l0-0.4l0-0.2l-0.1-0.1l-0.2-0.2
	l-0.5-1l-0.1-0.3l0-0.7l-0.1-0.3l-0.3-0.3l-0.3-0.1l-0.3,0.2l-0.4-0.5l-0.7-0.9l-0.6-0.4l0,0.5l-0.2,0.1l-0.3-0.1l-0.1-0.2l-0.1-0.3
	l-0.2-0.7l-0.1-0.3l0-0.8l0.1-0.8l0.2-0.7l0.4-0.6l0.8-0.9l0.2-0.2l0.1-0.4l0.1-0.7l0.4-0.6l0.5-0.3l0.6-0.1l0.5-0.3l0.6-0.6
	l0.1-0.2l0-0.2l0.1-0.2l0.1-0.2l0-0.4l-0.1-1.1l0.1-0.4l0.2-0.3l0.3-0.3l1-0.6l1-0.7l0.3-0.1l0.3,0.1l0.1,0.2v0.3l-0.1,0.4l0,0.7
	l0.7,1.7l0.1,0.7l0.1,0.3l0.2,0.3l1,1l0.2,0.4l0,0.3l-0.1,0.8l0.1,0.3l0.7,0.9l0.3,0.2l0.4,0.1l0.2,0.1l0.1,0.2v0.4l0,0.4l0.2,0.6
	l0,0.4l-0.2,1.1l0,0.4l0.2,2.1l0.1,0.3l0.2,0.3l0.4,0.8l0,0.2l0,0.2v0.2l0.1,0.2l0.6,0.4l0,0.2l0.1,0.9l0.1,0.2l0.2,0.1l0.1-0.3
	l0.1-1.6l0.3-1.3l0-2.5l0.3-1.5l0.2-0.7l0-0.4l-0.2-0.2l-0.3-0.2l-0.3-0.3l-0.3-0.6l-0.2-0.3l-0.2-0.4l0.1-0.4l0.2,0.2l0,0.1h0.1
	l0-0.7l0.4-0.2l0.5,0.3l0.4,0.5l0.4,1.1l0.3,0.5l0.5,0.2l0.1-0.1l0-0.3l0-0.4l-0.1-0.3l-0.2-0.2l-0.5-0.4l-0.1-0.2l0-0.4l0.1-0.5
	l0.2-0.5l0.4-0.4l0.5,0.2l0.7,0.1l0.6-0.1l0.3-0.3l0-0.6l0.1-0.5l0.3-0.4l0.5-0.5l0.1-0.2l0.4-0.9l0.1-0.1l0.1-0.1l0.2,0l0.1,0
	l0.1-0.1l0.1-0.3l0.4-0.5l0.1-0.3L164.2,242z M64.8,144.7l0.2,0.5l0,0.8l0,0.2l-0.1,0.1l-0.1,0.1l-0.1,0.1l0,0.2l0.3,0.4l0.1,0.2
	l0,0.2l0.1,0.3l0,0.2l0.1,0.4l0.2,0.1l0.3,0l0.4,0.2l0.2,0.3l0.3,0.6l0.5,0.5l0.2,0.3l0.1,0.3l0,0.3l-0.2,0.7l0,0.4l0.2,0.2l0.2,0.1
	l0.7,1.2l0.1,0.1l0.1,0l0.4,0.4l0.2,0.4l0.3,0.3l0.4,0.3l0.3,0.2v-0.3l0.1,0l0.3,0.3l0,0.1l0.1,0.3l0.1-0.1l0.1,0l0.1,0.1l-0.2,0.1
	l-0.2,0l-0.2-0.2l-0.1-0.3l-0.1,0.5l0.1,0.5l0.2,0.4l0.3,0.2h1.1l0.2,0.1l0.4,0.4l0.3,0l0.5-0.9l0.3-0.3l0.2-0.1l0.2-0.1l0.4-0.4
	l0.2-0.1l0.2,0.3l0.5,0.3v-0.2l0-0.1l-0.1-0.1l-0.1-0.1l0.1-0.2l0-0.2l0-0.1l-0.1-0.1l0-0.3l0.3,0l0.7,0.2v-0.1l-0.3-0.3l-0.2-0.5
	l0-0.5l0.3-0.2L76,153l0-0.1l0-0.1l0.1-0.1l0.1,0.1l0.1-0.1l-0.1-0.1l0-0.1l0-0.3l0-0.2l0.1,0l0.1,0l0.1,0l0.4-0.3l0.2-0.2l0.7-1
	l0.1-0.1l0.1,0l0,0l0-0.4l0-0.1l-0.2-0.3l-0.1-0.3l-0.1-0.3l0-0.2l-0.1-0.1l-0.5-0.6l-0.2-0.4l0-1.1l-0.1-0.5H77l0-0.2l0.2-0.7
	l0-0.3l-0.2-1.1l0-0.4l0.1-0.4l0.2-0.3l0.6-0.4l0.2-0.2l0.1-0.4l-0.1-0.3l-0.3-0.2l-0.4-0.1l-0.4,0l-0.2,0l-0.2,0.1l-0.2,0l-0.2-0.1
	l-0.1-0.2l0.1-0.2l0.1-0.2l0-0.2l0-0.4l-0.2-0.3l-0.3-0.1l-0.4,0l-0.3-0.2l-0.7-1.1l-2-1.6l-0.4-0.6H72l-0.1,0.2l-0.2,0.1l-0.2,0.1
	l-0.2,0.1l-0.1,0.1l0,0l-0.1,0.1l0,0.1l0,0.3l0,0.1h-0.1l0.1-0.6l-0.3-0.2l-1.1,0.1l-0.3-0.2l-0.4-0.7l-0.2-0.1l-0.2-0.1l-0.2-0.2
	l-0.2-0.2l-0.1-0.1l0.2,0l0.1-0.1l0.1-0.1l0.1-0.2l-0.1-0.1l0-0.1l-0.1,0.1l-0.1,0l-0.2-0.1l-0.1,0.3l-0.1,0.1l-0.1,0l-0.2-0.2
	l-0.5,0.3l-1.5,0.3l-0.5,0.2l-0.3,0.1l-0.3,0l-0.3-0.3l-0.2-0.1l-0.3,0.1l-0.2-0.2l-0.4-0.1l-0.7,0l-0.3,0l-0.2-0.1l-0.3-0.2l-0.2,0
	l-0.2,0l-0.2,0l-1,0l-1.2-0.3l-0.4,0l-0.4,0.1l-0.3,0.2l-0.3,0.3l-0.2,0.4L57,136l0,0.3l0.1,0.3l0.2,0.2l0.2,0.2l0.3,0.1l0.2-0.1
	l0.3-0.3l0.1-0.1l0.1-0.1l0.1-0.1l0.1-0.1l0.1,0l0.3-0.1l0.1,0l0.2,0.1l0.1,0.3l0.1,1.2l0.2,0.6l0.3,0.5l0.4,0.4l-0.2,0.3l0.2,0.1
	l0.6-0.1l0.3,0.1l0.3,0.4l0.8,0.3l0.4,0.5l0.5,1.1l0.7,1l0.3,0.5L64.8,144.7z M138.8,192.1l0.6,0.2l-0.1-0.3l-0.1-0.5l-0.1-0.5
	l0.1-0.4l0.3-0.1l1.2,0.5l0.5-0.1l0.2-0.3l0-0.4l0-0.4l-0.1-0.5l-0.1-0.3l-0.1-0.3l-0.2-0.3h-0.1l-0.1,0.2l-0.2-0.2l-0.2-0.3
	l-0.1-0.2l0-0.2l0-0.6l0-0.2l-0.2-0.4l0-0.2l0.2-0.9l0-0.3l-0.3-0.1l-0.1-0.1l-0.7-0.8l-0.1-0.5l-0.1-0.1l-0.1-0.1l-0.4-0.1l-1-0.5
	l-0.2-0.2l-0.1-0.7l0.1-0.8l0.7-2.1l0-0.7l-0.2-1.6l0-0.5l0-0.2l-0.2-0.3l0-0.2l0-0.1l0.2-0.3l0.1-0.2l0-0.2l0-0.5h-0.1l0,0.2
	l-0.1,0.1l-0.1,0l-0.1-0.4l-0.1-0.1l-0.1,0l-0.2-0.1l-0.1-0.1l-0.1,0l-0.1,0l-0.1-0.1l0-0.1l0-0.2l0,0l-0.1-0.1l0-0.2l0-0.2l0.2-0.3
	l0.1-0.4l0-0.4l-0.1-0.2l-0.1-0.1l-0.4-0.3l-0.2-0.1l-0.1,0l-0.4,0l0,0l0-0.1l-0.1-0.1l-0.1,0l-0.1,0l0,0.2l-0.1,0l-0.2,0l-0.3-0.2
	l-0.2,0L134,171l-0.7,0.9l-0.8,0.7l-0.5,0.3l-0.6,0.2l-0.8,0l-0.6-0.3l-0.4-0.5l-0.4-1.1l-0.2-0.2l-0.5-0.4l-0.2,0l-0.1,0.3
	l-0.1,0.7l-0.6-1.1l-0.3-0.4l-1-0.8l-0.4-0.6l-0.2-0.1l-0.1,0l-0.4,0.2l-0.1,0l-0.1,0.3l0.2,1l0.3,0.4l0.1,0.3l0.1,0.2l0.2,0.2
	l0.1,0.1l-0.2,0.1l0.1,0.1l0.2,0.1l0.3,0.1L126,172l-0.2,0.2l-0.1,0.1l0.1,0.3l0.2,0.3l0.3,0.2l0.3,0v1.6l0.1,1.1l0.1,0.2l0,0.1
	l0,0.1l-0.2,0.2l-0.1,0.3l-0.1,0.2l-0.1,0.3l0,0.3l0.2,0.2l0.2,0.1l0.1,0.2l0,0.3l-0.1,0.3l-0.2,0.3l-0.1,0.2l0,0.3l0.1,0.1l0.2,0
	l0.2,0l0.2,0l0.1,0.1l0.1,0.5l0.1,0l0.3-0.1l0,0.1l0.6,0.5l0.1,0l0.2-0.1l0.2-0.2l0.2-0.3l0.2-0.4l-0.1-0.3l-0.2-0.3l0.1-0.3
	l0.2-0.2l0.3-0.1l0.3,0l0.3,0l0.3,0.1l0.1,0.3l0.1,0.1l0.7,0.5l0.4,0.6l0.2,0.3l0.1,0.3l0.1,0.1l0.6,0.5l0.1,0.2l0.4,1.7l0,0.8
	l0,0.3l-0.4,1.1l-0.1,0.3l0,0.8l0,0.1l-0.2,0.3l-0.1,0.1l0,0.1l-0.1,0.8l0,0.5l0.1,0.4l0.2,0.2l0.4,0.2l0.2,0.4l0.1,0.5l0,0.4
	l-0.1,0.6l-0.2,0.7l-0.1,0.7l0.2,0.6l0.3,0.1l0.3,0.1l0.8,0l0.4,0.1l0.2,0.2l0.1,0.2l0.3,0.3l0.2,0.1l0.2,0l0.2,0.1l0.1,0.2l0,0.1
	l0.9,0.7l0.3,0.1l0.2-0.1l0-0.3l-0.2-0.8l-0.1-0.7l-0.4-1.1l-0.1-2.3l-0.2-0.5l0.2-0.3l0.3,0l0.3,0.1l0.2,0.2l0,0.6l0.1,0.1l0,0.1
	l0.3,0.3l0.1,0.6l0.3,0.7L138.8,192.1z M116.3,191.6l0.3-0.2l0.4-0.1l0.4,0l0.2-0.1l0.4-0.6l0.3-0.2l0.9-0.5l0.2-0.1l0-0.6l0-0.2
	l0.1-0.1l0.1,0l0.1,0.1l0,0.2l0.4-0.3l0.1-0.1l-0.1-0.2l0-0.2l0.4-1.1l0.1-0.3l0-1.3l0-0.1l-0.1,0l0-0.1l0.1-0.1l0.1-0.1l0.1-0.1
	l0.1,0l-0.1-0.6l-0.5-1.4l0-0.7l0.1-0.4l0.3-0.7l0.1-0.4l0.1-0.2l0.2-0.4l0.1-0.2l0-0.2l-0.2-0.4l0-0.3l0.1-0.5l0-0.4l-0.2-1
	l0.1-0.4l-0.2,0.1l-0.2,0l-0.3,0l-0.1-0.1l0-0.1L120,177l-0.2-0.1l0.2-0.3l0.5-0.6l0.1-0.3l0.1-0.6l0.1-0.3l0.2-0.5l0.1-0.5l0-0.1
	l-0.5-0.1l-0.5,0.3l-0.8,1.1l-0.2,0.3l-0.1,0.3l0.1,0.3l0.1,0.2l0.2,0.9l-0.2-0.1l-0.1-0.1l-0.1-0.1h-0.1l0,0.4l-0.2,0.3l-0.2,0.2
	l-0.1,0.3l0.2,0.6l0.1,0.4l-0.3,0.5l-1.1,3.2l-0.3,0.5l-0.7,0.7l-0.3,0.4l-0.2,0.4l-0.2,0.7l-0.4,0.5l-0.2,0.3l0,0.2l0.1,0.6l0,0.2
	l-0.1,0.1l-0.1,0.1l0,0.1l-0.1,0.3l-1.4,1.9l-0.3,0.3L113,190l-0.3,1.1l-0.8,1.1l-0.2,0.8l-0.2,0.4l-0.6,0.7l-0.6,0.5l-0.2,0.3
	l-0.1,0.4l0,0.4l0,0.1l-0.1,0.1l0,0l-0.1-0.1l-0.1-0.1l-0.1,0.1l-0.1,0.1l-0.1,0.5l0.1,0.1l0.3,0.2l0.1,0.1l0,0.4l-0.1,0.3l-0.7,1.6
	l-0.9,4.8l0,0.4l0.1,1l0.1,0.4l0.2,0l0.3-0.2l0.2-0.2l0.9-1.1l0.2-0.4l0.2-0.2l0.1-0.1l0.3-0.2l0.1-0.2l0.2-0.3l0.3-0.8l0.1-0.7
	l1.6-3.7l0.1-0.1l0.2-0.1l0.2-0.1l0.1-0.1l0-0.3l0.2-0.9v-1.4l0-0.1l0.1-0.2l0.1-0.1l0.1-0.1l0.1-0.1l0.2-0.1l0.1-0.1l0.2-0.2
	l0.1-0.2l0.1-0.3l0-0.4l0.1-0.3l0.9-0.7L116.3,191.6z M85.3,185.5l-0.7,1.3l-0.1,0.7l0.3,0.6l0.6,0.1l0.6-0.3l0.4-0.4l1.1-1.8
	l0.5-0.4l0.2,0l0.2,0l0.2,0l0.2-0.1l0.7-0.6l0.2-0.1l0.2,0l0.2,0.1l0.2,0l0.2-0.1l0.2-0.2l0.2-0.1l0.2,0l0.6,0l0.1,0l0.2-0.2l0.1,0
	l1.5-0.2l1.6-0.1l0.8-0.2l0.1-0.4l0.2-0.1l0-0.1l-0.1-0.1l0,0l0.1-0.3l0.1-0.1l0.3-0.2l0.2-0.1l0.2-0.1l0.2,0l0.3-0.2l0.1,0l0.1,0
	l0.3,0.2l0.2,0l0.3-0.1l0.3-0.3l0.4-0.6l0.2-0.5l-0.1-0.4l-0.2-0.4l-0.1-0.5l0.2-0.3l0.4-0.4l0.5-0.3l0.4-0.2v0.2l0.4-0.3l0.1,0
	l0.2,0l0.1,0.1l0.1,0.1l0.2,0l0.1-0.1l0.1-0.4l0.1-0.1l0.2,0l0.1,0.1l0,0.2l0,0.2l0.4-0.2l0.1-0.1l-0.1-0.2l0.4-0.2l0.3-0.2l0.2-0.3
	l0.2-0.9l0.3-0.1l0.4,0.1l0.4,0.2l0.1-0.3l0.3-0.3l0.1-0.2l-0.1-0.2l-0.1-0.1l-0.1-0.1l-0.1-0.2l0-0.6l0-0.3l0.1-0.3l0,0l0-0.5l0,0
	l0-0.1l0-0.1l0.1-0.1l0.3-0.1l0-0.1v-0.1l0.2-0.3l0-0.2l-0.1-0.5l0.1-0.3l0.1-0.3l0.1-0.2l-0.1-0.2l-0.4,0.1l-0.1,0l0.2-0.3l-0.2,0
	l-0.2,0l-0.1-0.1l0-0.2l0.1-0.1l0.2,0l0.2,0l0.1-0.1l0.1-0.3l0-1h-0.1l-0.2,0.4l-0.4,0.4l-0.5,0.3l-0.8,0.2l-0.6,0.5l-0.4,0.1
	l-0.4,0.2l-0.5,0.3l-0.5,0.2l-0.4-0.2l0-0.3l0.3-0.4l0.9-0.6l-0.8-0.3l-0.2,0l-0.2-0.1l-0.1-0.2l-0.1-0.3l-0.1-0.3l-0.4-0.2
	l-0.6-0.1l-0.7,0l-0.5,0l0.1,0.1l0,0.1l0.1,0.1l0,0.2l-0.3,0.4l-0.1,0.1l-0.1,0.1l0,0.1l0.2,0.2l-0.2,0l-0.1-0.1l-0.2-0.2l-0.2-0.1
	l-0.1,0l-0.1,0.3l0,0.1l0.1,0.2v0.1l-0.2,0.1l-0.2,0.2l-0.1,0l-0.3-0.1l-0.1-0.3l0-0.3l-0.1-0.3l-0.3-0.2l-1-0.4l-0.8-0.8l-0.2-0.1
	l-0.2-0.1l-0.2-0.2l-0.7-1l-0.2-0.1l-0.7-0.1l-0.2-0.1l-0.4-0.3l-0.6-0.4l-0.6-0.2l-1.9-0.4l-0.4-0.2l-0.4-0.3l-0.3-0.3l-0.4-0.5
	l-0.2-0.1l-0.6-0.2l-0.1-0.1l-0.1-0.1l-0.1-0.1l-0.1-0.1l-0.1,0l-0.1,0.1l-0.1,0l-0.1,0.1l-0.2,0.3l-0.1,0.1l-0.2,0l-0.1,0.1L84,163
	l-0.1,0.2l0.1,0.2l0,0.4l0,0.3l-0.1,0.2l-0.1,0.1l-0.2,0.2l-0.2,0.2l0,0.2l0.2,0.1l0.3,0l0.6,0l0.4,0l0.3,0.1l0.6,0.2l0.6,0.1l0.5,0
	l0.4,0.2l0.3,0.5l0.1,0.6l-0.4,2.8l-0.1,0.1l-0.1,0.1l0,0.1l-0.1,2l-0.1,0.4l-0.2,0.3l-0.1,0.3l0,0.4l0.1,0.4l0,0.4v2.9l-0.1,0.8
	l-1.1,1.9l-0.3,0.9l-0.1,0.5l-0.2,0.5l0,0.3l0.1,0.4l0.5,0.5l0.1,0.3l0.1,1.1v0.4L85.3,185.5z M93.7,201.9l0.5,1.1l0.1,0.2l0.2,0.1
	l0.2,0.2l0.4,0.8l0.3,0.3l0.3,0.4l0.2,0.3l0.2,0.1l0.2,0l0.2,0.1l0.1,0.1l0.1,0.2l0.1,0.1l0.2,0.1l0.2,0.1l0.8,0.4l0.3,0.1l1.1,0.1
	l0.3,0.1l0.3,0.2l0.4,0.4l0.2,0.3l0.1,0.3l0.1,1.2l0.7,1.7l0.4,0.7l0.6,0.6l0.7,0.2l0.2,0l0.3-0.2l0.4-0.1l0.3-0.2l0.2,0h0.6
	l0.2-0.1l1.2-0.7l0.1-0.2l0.1-0.3l0.9-1.3l0.3-0.7l0.2-0.8l-0.1-0.7l-0.3-0.3l-0.3-0.3l-0.3-0.3l-0.3-0.8l-0.3-0.3l-0.4-0.2
	l-0.2-0.2l-0.1-0.4l0-0.3l-0.1-0.2l-0.5-0.1l-0.3-0.2l0.1-0.4l0.3-0.2l0.2,0.4l0.1-0.5l-0.7-0.5l0-0.5l0.1-0.1l0.2,0l0.1,0l0.1-0.3
	l0-0.2l0.1-0.4l-0.2-2.9l0.1-0.4l0.2-0.3l0.5-0.5l0.2-0.8l0.1-0.1l0.1-0.1l0.1-0.1l0.2-0.4l0.8-1.2l0.1-0.3l0.1-0.3l0-0.4l0.1-0.4
	l0.5-1.1l0.1-0.3l0-1.1l0-0.4l0.6-1.3l0.2-0.3l1.4-1.5l0.2-0.4l0.5-2.3l0.3-0.7l0.5-0.7l0.2-0.3l0.1-0.8l0-0.1l-0.1-0.1l-0.1,0
	l-0.1,0l-0.1,0l-0.2-0.3l-0.1-0.2l-0.1-0.7l-0.2-0.3l-0.3-0.1l-0.6-0.2l-0.2-0.1l-0.2,0l-0.2,0l-0.2,0.1l-0.1,0.1l-0.1,0.1l-0.2-0.1
	l0-0.2l0.1-0.2l0-0.1l-0.2-0.1l-0.2,0l-0.4,0.2l-0.2,0l-0.2-0.1l-0.3-0.3l-0.2-0.1l-0.1,0l-0.3,0l-0.1-0.1l-0.1-0.1l-0.1-0.1l0-0.1
	l-0.8,0l-0.7,0.3l-1.4,0.9l-0.3,0.1l-0.3,0.1l-0.8,0l-0.1,0.1l-0.5,0.5l-0.1,0.2l-0.1,0.1l0,0.1l0,0.4l0.1,0.1l0.2,0.2l0.1,0.1
	l0.1,1.1l-0.1,0.4l-0.6,1.1l0,0.2l-0.4,0.9l-0.6,0.6l-0.1,0.2l-0.1,0.1l-0.3,0.1l-0.3,0.1l-0.2,0.3l0.1,0.7l0.6,1.3l0.2,0.8
	l-0.2,2.1l0.1,0.7l0.2,0.7l0.1,0.4l-0.1,0.3l-0.5,0.6l-0.3,0.2l-0.3-0.2l-0.4,0.3l-0.9,1l-0.4,0.2l-0.9,0.2l-0.2,0.2l-0.3-0.1
	l-1.1-0.2l-0.4,0l-0.7,0.2l-0.4,0l-0.2,0.1l-0.3,0.8l-0.6,1.2l-0.2,0.2v0.1l0.2,0.5l0,0.6l-0.1,0.6l0,0.7l0.1-0.1l0.3-0.1l0.1-0.1
	l0,0.3l-0.1,0.4l0,0.2l0.1-0.1l0.2-0.1l0.1-0.1l0.3,0.3l0,0.1l-0.1,0.2L93.7,201.9z M46.2,186l-0.2-0.3l-0.1-0.7l-0.2-0.2l0-0.1
	l0-0.1l0-0.1l-0.1-0.1l0.1-0.1l0.1,0l0.1,0l0.2,0.1l-0.3-0.4l-0.2,0l-0.2,0.1l-0.4,0l-0.3-0.1l0-0.2l0.1-0.3l0.1-0.3v-0.6l-0.1-0.5
	l0.1-0.2l0.1-0.2l0-0.2l-0.2-0.2l-0.1,0l-0.1,0l-0.2,0l-0.1,0l-0.1,0.1l-0.1,0.1l-0.2,0l-0.2-0.1l-0.1-0.1l-0.1-0.2l-0.1-0.4
	l-0.1-0.3l0-0.2l0-0.2l0.1-0.3l0-0.2l0-0.2l-0.1-0.4l0-0.2l0-0.2l0.2-0.5l0.1-0.1l0.2,0.1l0.4,0.2l0.2-0.1l0-0.1l-0.2-0.8l-0.1-0.2
	l-0.4-0.4l-0.2-0.4l0.1-0.4l0.4-0.7l0.3-0.7l0.1-0.7l0-0.7l-0.3-0.6l-0.1,0.1l-0.1,0.1l0,0.1l-0.2-0.1l-0.1-0.2l-0.1-0.2l-0.1-0.2
	l0-0.1v-0.3l0-0.2l-0.1-0.3l-0.1-0.2l-0.2,0l-0.1,0.2l-0.1,0.2l0,0.5l-0.1,0.2l-0.1,0.2l-0.3,0.3l0-0.1l-0.1,0l-0.1,0l-0.1,0.1
	l0,0.1l0,0.1l-0.1,0.1l-0.1,0.1l-0.1,0.3l0.1,0.8l0,0.4l-0.1,0.2l-0.2,0.3l-0.2,0.2l-0.2,0l0.1,0.3l0.1,0.2l0.3,0.4l0,0L42,176
	l0.1,0.2l-0.2,0.5l0,0.5l-0.1,0.2l-0.2,0.1l-0.2,0l-0.2-0.1l-0.2,0l-0.2-0.2l-0.3-0.4l-0.2-0.2l-0.1,0.2l0,0.4l0.4,0.7l0.1,0.4
	l-0.2,0l-0.1-0.1l-0.1-0.1l0-0.2h-0.1v0.1l-0.1,0.2l0,1l0.1,0.2l0.2,0l0.2,0l0.2,0l0,0.1l-0.2,0.3l0,0.2l0.1,0.4l0.3,0.2l0.3,0.1
	l0.3,0l0.2,0.1l0.3,0.1l0.3,0.2l0.1,0.2l-0.1,0.1l-0.1,0.2l-0.1,0.3l0.1,0.1l0.2,0.5l0.1,0.1l0.1,0.2l0,0.1l-0.2,0.1l-0.2,0
	l-0.1-0.1l0-0.1l-0.1-0.2l-0.1-0.2l-0.1-0.1l-0.1,0.1l-0.1,0l-0.1-0.1l-0.1-0.2l-0.1-0.3l-0.3-0.1l-0.3-0.2l-0.1-0.3h-0.1v0.1h-0.1
	l-0.2-0.3l-0.2-0.1l-0.1-0.2l0.1-0.4l-0.2,0.1l-0.2,0l-0.2-0.1l-0.1-0.2h0.3l-0.2-0.5l0.1-0.1l0-0.1l0.1-0.2h-0.1l-0.1,0.1h-0.1
	l-0.1-0.1l-0.1-0.1l-0.1,0.2l0,0.1H39l-0.1-0.4l-0.3,0l-0.2,0.2l0.3,0.2l-0.1,0.3l0.1,0.1L39,180l0.1,0.2l-0.1,0.1l-0.5,0.6l0.2,0.1
	l0.3,0.1l0.2,0.2l0.1,0.2l0,0.5l0.1,0.2l0.2,0.2l0.1,0l0.2-0.2l0.1,0l0.1,0.1l0.1,0.1l0.1,0.1l0.1,0.1l0.2,0.3l0.1,0.2l-0.4,2.3
	l-0.2,0.3l-0.3,0.3l-0.4,0.2l-0.3-0.1l-0.1,0.2l0.1,0.2l0.2,0.2l0.2,0.2l-0.2,0.2l-0.6,0.1l-0.2,0.4l-0.1,0.1l-0.2,0l-0.1,0.1
	l-0.1,0.1l-0.2,0.4l-0.5,0.5l-0.3,0.2l-0.1-0.1l-0.1-1l-0.1-0.2l0.1-0.1l0-0.1l0-0.2l-0.2,0.1l-0.3,0.1l-0.1,0.1l0,0.2l0.1,0.1
	l0.2,0.1l0.1,0.2l-0.4,0l-0.1,0.1v0.2l-0.1,0.2l-0.2-0.1l-0.3-0.1l-0.3-0.1l-0.3,0l-0.2,0.1l-0.2,0.2l-0.2,0.3l-0.1,0.2l0.1,0.2
	l0.2,0l0.2-0.1l0.2-0.1l0.3,0.1l-0.1,0.2l-0.1,0.2l0.1,0.3l-0.3,0.1l-0.3,0.1l-0.2,0.1l-0.2,0.2l-0.1-0.1l-0.1,0l-0.1,0l-0.1,0
	l0.1,0.2l0.1,0.3l0,0.3l-0.1,0.3l-0.3,0.2l-0.3,0l-0.5-0.1l-0.3,0.1l-0.3,0.2l-0.2,0.1l-0.4,0l-0.1,0.1l-0.1,0.3l0,0.3l0.1,0.3
	l0.3,0.6l0,0l0,0.1l-0.1,0.2l-0.1,0.1l-0.1,0.1l-0.1,0.1l0,0.1l-0.2,0.2l-0.4-0.1l-0.3-0.2l0.1-0.1l0.1-0.1v-0.3l-0.1-0.5l-0.1,0.2
	l-0.6,1.3l-0.1,0.2l-0.8,0.4l-0.3,0.3l0.2,0.4l-0.2,0.2l-0.6,0.8l-0.1,0.3l-0.1,0.3l0,0.2l-0.2,0.3l-0.8,0.8l-0.2,0.5l-0.1,0.2
	l-1.4,1l-0.1,0.2l-0.1,0.1l-0.1,0l-0.1,0l-0.1,0.3l-0.1,0.1l-0.1,0l-0.1,0.1l-0.3,0.3l-0.2,0.1l-0.2-0.1l-0.2,0.2l-0.1,0.2l0,0.4
	l0,0.2l-0.1,0.1l-0.1,0.1l0,0.1l-0.1,0.1l-0.5,0.4l-0.3,0.6l-1,0.7l-0.4,1l-0.4,0.2l-0.4,0.2L20,206l0,0.2l0.1,0.4l0,0.1l-0.1,0.1
	l-1.2,0.8l-0.2,0.2l-0.3,0.5l-0.2,0.2l-0.2,0.2l-0.2-0.1l-0.1-0.1l0-0.2l0-0.2l-0.4,0.2l-0.4,0l-0.7-0.1l-0.2,0.2l-0.4,0.8l-0.3,0.2
	l-0.2,0.1l-0.7,0.4l-0.2,0.2l0.1,0.2l0,0.1l-0.1,0.1l-0.1,0.1l0,0l-0.2,0.6l-0.1,0.1l-0.2,0.1l-0.2,0.1l-0.2,0l-0.2,0l-0.1-0.1
	l-0.1-0.2l-0.1,0l-0.2,0.2l-0.4,0.1l-0.2,0.1l-0.1,0.3l-0.1,0.4l-0.3,0.5l-1.3,1.1l-0.4,0.4l-1.2,1.9l-0.3,0.3l-0.3,0.2l-0.7,0.2
	l-0.3,0.3l-0.3,0.6h0.2L6.6,218l-0.3,0.3l-0.3,0.2l-0.2,0.1l-0.2,0.2l-0.1,0.3l-0.1,0.3l-0.3-0.1l0.1,0.3l0,0L5,220.2l-0.2,0.3
	L4.7,221l-0.1,0.1l-0.1,0.1l0,0.1l0,0.2l0,0.3l0,0.4l0,0.2l-0.1,0.1l-0.1,0.1l-0.1,0.1l-0.1,0.4L4,223.2l0,0.2l0,0.5l0.1,0.1
	l0.4-0.5l0.5-0.3l0.2-0.2l0.1-0.3l0.6-0.2l0.1-0.1l0.1-0.3l0.1-0.1l0.5-0.3l0.6-0.3l1.6-0.5l0.2,0l0.1,0.2l0.1,0.1l0.2,0l0.2-0.1
	l0.1-0.2l0.1-0.4l0.5-0.6l0.1-0.4l0-0.7l0.1-0.4l0.4-0.2l1,0.1l0.4,0l0.3-0.1l0.2-0.1l0.2-0.1l0.4,0l0.4-0.1l0.3-0.2l1.1-1.2
	l1.2-0.9l1.5-0.8l0.2-0.2l0.8-1.1l0.4-0.8l0.1-0.4l0.1-0.3l0.1-0.1l0.1,0l0.1,0l0.1,0l0-0.1l0-0.2l0-0.1l0.2-0.5l0.1-0.5l0.1-0.1
	l0.4-0.2l0.1-0.1l0.3-0.1l1,0l0.2-0.1l0.4-0.2l0.2-0.1h0.7l0.3-0.1l0.2-0.2l0.3-0.5l0.9-0.9l0.3-0.1l0.2,0l0.6-0.4l0.1-0.1l0.7-0.9
	l0.2-0.3l0.1-0.3l0.1-0.2l0.6-0.6l1.3-2.1l0.1-0.1l0.3-0.1l0.1-0.1l0-0.1l0.1-0.1l0.2-0.2l0.2-0.3l0.1-0.3l0-0.3l0.4,0l0-0.3
	l-0.3-0.2l-0.4,0.1l0.1-0.2l0-0.2l-0.1-0.1l-0.2-0.1l0.1-0.3l-0.1-0.3l0-0.3l0.2-0.1l0.3,0l0.1,0.1l-0.1,0.3l0.1,0.2l0.2,0.2
	l0.3,0.1L31,200l0.1-0.9l-0.2-0.4l-0.4-0.7l-0.1-0.5l0.1-0.4l0.3-0.4l0.4-0.2l0.4,0.1l0.5-0.3l0.4-0.2l0.5-0.1l0.8,0l0.4-0.1
	l0.2-0.1l0.2-0.1l0.3-0.2l0.2-0.1l0.2,0l0.4,0l0.2,0l0.2-0.1l0.3-0.2l0.2-0.1l0.8-0.2l0.6-0.3l0.4-0.5l0.3-1.6l0.3-0.7l0.5-0.7
	l1.2-1.2l0.4-0.3l0.3-0.1l0.3-0.1l0.5-0.3l0.2-0.1l0.2,0l0.3,0.1l0.2,0H44l0.4,0l0.2-0.1l0.3-0.4l0.8-0.7l0.1-0.1l0.3-0.5l0.2-0.1
	l0.4-0.1l0.1-0.1l0.3-0.4l-0.2-0.2L46.2,186z"/>
</svg>
